STARTFONT 2.1
COMMENT
COMMENT Converted from OpenType font "Q:\font stuff\winfont\Zenon.ttf" by "otf2bdf 3.0".
COMMENT
FONT -FreeType-Zenon-Medium-R-Normal--96-960-72-72-P-525-ISO10646-1
SIZE 96 72 72
FONTBOUNDINGBOX 139 115 -16 -22
STARTPROPERTIES 19
FOUNDRY "FreeType"
FAMILY_NAME "Zenon"
WEIGHT_NAME "Medium"
SLANT "R"
SETWIDTH_NAME "Normal"
ADD_STYLE_NAME ""
PIXEL_SIZE 76
POINT_SIZE 960
RESOLUTION_X 72
RESOLUTION_Y 72
SPACING "P"
AVERAGE_WIDTH 525
CHARSET_REGISTRY "ISO10646"
CHARSET_ENCODING "1"
FONT_ASCENT 93
FONT_DESCENT 20
COPYRIGHT "Copyright © 1986-1995 SWFTE International, Ltd. All rights reserved"
_OTF_FONTFILE "Q:\font stuff\winfont\Zenon.ttf"
_OTF_PSNAME "ZenonRegularSWFTE"
ENDPROPERTIES
CHARS 95
STARTCHAR 0020
ENCODING 32
SWIDTH 302 0
DWIDTH 29 0
BBX 0 0 0 0
BITMAP
ENDCHAR
STARTCHAR 0021
ENCODING 33
SWIDTH 260 0
DWIDTH 25 0
BBX 12 74 8 0
BITMAP
FFF0
FFF0
FFF0
FFF0
FFF0
FFF0
FFF0
FFF0
FFF0
FFF0
FFF0
FFF0
FFF0
FFF0
FFF0
FFF0
FFF0
FFF0
FFF0
FFF0
FFF0
FFF0
FFF0
FFF0
FFF0
FFF0
FFF0
FFF0
FFF0
FFF0
FFF0
FFF0
FFF0
FFF0
FFF0
FFF0
FFF0
FFF0
FFF0
FFF0
FFF0
FFF0
FFF0
FFF0
FFF0
FFF0
FFF0
FFF0
FFF0
FFF0
FF00
F000
0000
0000
0000
0000
0000
0F00
1FC0
3FE0
3FE0
7FF0
7FF0
7FF0
FFF0
FFF0
FFF0
7FF0
7FF0
7FF0
7FE0
3FE0
1FC0
0F00
ENDCHAR
STARTCHAR 0022
ENCODING 34
SWIDTH 427 0
DWIDTH 41 0
BBX 21 23 11 52
BITMAP
FC01F0
FC01F0
FC01F0
FC01F0
FC01F0
FC01F0
FC01F0
FC01F8
FC01F8
FC01F8
FC01F8
FC01F8
FC01F8
FC01F8
FC01F8
FC01F8
FC01F8
FC01F8
FC01F0
FC01C0
F00100
C00000
800000
ENDCHAR
STARTCHAR 0023
ENCODING 35
SWIDTH 760 0
DWIDTH 73 0
BBX 64 48 2 21
BITMAP
00000007FC01FF00
0000000FF801FF00
0000000FF803FF00
0000001FF803FE00
0000001FF007FE00
0000003FF007FC00
0000003FE007FC00
0000007FE00FF800
0000007FE00FF800
000000FFC01FF800
000000FFC03FFF00
001FFFFFFFFFFFFF
001FFFFFFFFFFFFE
003FFFFFFFFFFFFE
003FFFFFFFFFFFFE
003FFFFFFFFFFFFC
007FFFFFFFFFFFFC
007FFFFFFFFFFFF8
00FFFFFFFFFFFFF8
00FFFFFFFFFFFFF8
00003FFFFFFF8000
00000FF803FF0000
00001FF803FE0000
00001FF007FE0000
00003FF007FC0000
00007FE00FFC0000
00007FE00FF80000
0000FFE01FF80000
0000FFC01FFF0000
1FFFFFFFFFFFFF00
1FFFFFFFFFFFFE00
3FFFFFFFFFFFFE00
3FFFFFFFFFFFFE00
7FFFFFFFFFFFFC00
7FFFFFFFFFFFFC00
7FFFFFFFFFFFF800
FFFFFFFFFFFFF800
000FF801FF800000
000FF803FF000000
001FF003FF000000
001FF007FE000000
003FF007FC000000
003FF00FFC000000
007FE00FF8000000
007FE00FF8000000
00FFC01FF8000000
00FFC01FF0000000
00FF803FF0000000
ENDCHAR
STARTCHAR 0024
ENCODING 36
SWIDTH 906 0
DWIDTH 87 0
BBX 82 107 2 -14
BITMAP
000000001FFE0000000000
000000001FFE0000000000
000000001FFE0000000000
000000001FFE0000000000
000000001FFE0000000000
000000001FFE0000000000
000000001FFE0000000000
000000001FFE0000000000
000000001FFE0000000000
000000001FFE0000000000
000000001FFE0000000000
000000001FFE0000000000
000000001FFE0000000000
000000001FFE0000000000
000000001FFE0000000000
000000001FFE0000000000
000000001FFE0000000000
000000001FFE0000000000
000000001FFFFFFFFFE000
000007FFFFFFFFFFFFC000
0000FFFFFFFFFFFFFF8000
0007FFFFFFFFFFFFFF0000
001FFFFFFFFFFFFFFE0000
007FFFFFFFFFFFFFFC0000
00FFFFFFFFFFFFFFF80000
01FFFFFFFFFFFFFFF00000
03FFFFFFFFFFFFFFE00000
03FFFFFFFFFFFFFFC00000
07FFFFFFFFFFFFFF000000
07FFFFFFFFFF0000000000
07FFF8000FFF0000000000
0FFFC0000FFF0000000000
0FFF80000FFF0000000000
0FFF00000FFF0000000000
0FFF00000FFF0000000000
0FFF00000FFF0000000000
0FFF80000FFF0000000000
0FFFC0000FFF0000000000
07FFE0000FFF0000000000
07FFF8000FFF0000000000
07FFFE000FFF0000000000
03FFFF800FFF0000000000
01FFFFF003FF0000000000
01FFFFFC00FF0000000000
00FFFFFF801F0000000000
007FFFFFF0070000000000
001FFFFFFF000000000000
000FFFFFFFE00000000000
0003FFFFFFFC0000000000
0001FFFFFFFFC000000000
00003FFFFFFFF000000000
00000FFFFFFFFE00000000
000001FFFFFFFFC0000000
0000003FFFFFFFF8000000
00000007FFFFFFFE000000
00000000FFFFFFFF800000
000000001FFFFFFFE00000
0000000003FFFFFFF80000
00000000007FFFFFFC0000
00000000000FFFFFFE0000
000000001C01FFFFFF0000
000000001FC01FFFFF8000
000000001FFC03FFFFC000
000000001FFE00FFFFE000
000000001FFE003FFFF000
000000001FFE000FFFF800
000000001FFE0007FFFC00
000000001FFE0001FFFC00
000000001FFE0000FFFE00
000000001FFE00007FFF00
000000001FFE00003FFF00
000000001FFE00001FFF80
000000001FFE00000FFF80
000000001FFE00000FFF80
000000001FFE000007FFC0
000000001FFE000007FFC0
000000001FFE000007FFC0
000000001FFE000003FFC0
000000001FFE000003FFC0
000000001FFE000003FFC0
000000001FFE000003FFC0
000000001FFE000003FFC0
003FFFFFFFFFFFFFFFFFC0
007FFFFFFFFFFFFFFFFFC0
00FFFFFFFFFFFFFFFFFFC0
01FFFFFFFFFFFFFFFFFFC0
03FFFFFFFFFFFFFFFFFFC0
07FFFFFFFFFFFFFFFFFFC0
0FFFFFFFFFFFFFFFFFFFC0
1FFFFFFFFFFFFFFFFFFFC0
3FFFFFFFFFFFFFFFFFFFC0
7FFFFFFFFFFFFFFFFFFFC0
FFFFFFFFFFFFFFFFFFFFC0
000000001FFE0000000000
000000001FFE0000000000
000000001FFE0000000000
000000001FFE0000000000
000000001FFE0000000000
000000001FFE0000000000
000000001FFE0000000000
000000001FFE0000000000
000000001FFE0000000000
000000001FFE0000000000
000000001FFE0000000000
000000001FFE0000000000
000000001FFE0000000000
000000001FFE0000000000
ENDCHAR
STARTCHAR 0025
ENCODING 37
SWIDTH 666 0
DWIDTH 64 0
BBX 52 78 4 -4
BITMAP
0000000003FFE0
0000000003FFC0
0000000007FFC0
00FF800007FF80
03FFE00007FF80
0FFFF8000FFF00
1FFFFC000FFF00
3FFFFE001FFE00
7FFFFE001FFE00
7F80FF003FFC00
7E003F003FFC00
FC001F807FF800
F8000F807FF800
F8000F80FFF000
F8000F80FFF000
F8000F81FFE000
F8000F81FFE000
F8000F83FFC000
FC001F83FFC000
7E003F07FF8000
7F80FF07FF8000
7FFFFF0FFF0000
3FFFFE0FFF0000
1FFFFC1FFE0000
0FFFF81FFE0000
03FFE03FFC0000
00FF803FFC0000
0000003FF80000
0000007FF80000
0000007FF00000
000000FFF00000
000000FFE00000
000001FFE00000
000001FFC00000
000003FFC00000
000003FF800000
000007FF800000
000007FF000000
00000FFF000000
00000FFE000000
00001FFE000000
00001FFC000000
00003FFC000000
00003FF8000000
00007FF8000000
00007FF0000000
0000FFF0000000
0000FFF01FF000
0000FFE07FFC00
0001FFE1FFFF00
0001FFC3FFFF80
0003FFC7FFFFC0
0003FF87FFFFC0
0007FF8FF01FE0
0007FF0FC007E0
000FFF1F8003E0
000FFE1F8003F0
001FFE1F0001F0
001FFC1F0001F0
003FFC1F0001F0
003FF81F0001F0
007FF81F0001F0
007FF01F8003F0
00FFF01F8003F0
00FFE00FC007E0
01FFE00FF01FE0
01FFC007FFFFC0
03FFC007FFFFC0
03FF8003FFFF80
07FF8001FFFF00
07FF00007FFC00
07FF00001FF000
0FFE0000000000
0FFE0000000000
1FFC0000000000
1FE00000000000
3E000000000000
20000000000000
ENDCHAR
STARTCHAR 0026
ENCODING 38
SWIDTH 656 0
DWIDTH 63 0
BBX 53 74 3 6
BITMAP
00000FF8000000
0000FFFF000000
0003FFFFC00000
0007FFFFF00000
001FFFFFF80000
003FFFFFFC0000
007FFFFFFE0000
00FFFFFFFF0000
01FFFFFFFF8000
03FFFFFFFFC000
03FFFFFFFFE000
07FFF81FFFF000
07FFE007FFF000
0FFFC003FFF000
0FFFC001FFE000
0FFF8000FFC000
1FFF00007F8000
1FFF00007F0000
1FFF00007E0000
1FFE00003C0000
1FFE0000380000
1FFE0000100000
1FFE0000000000
1FFE0000000000
1FFE0000000000
0FFE0000000000
0FFE0000000000
0FFF0000000000
07FF0000000000
07FF0000000000
07FF8000000000
03FFC000000000
01FFC000000000
01FFF000000000
07FFF800000000
0FFFFF00000000
0FFFFF00000000
1FFFF000000000
3FFFC000000000
3FFF0000000000
7FFE0000000000
7FFE07FFFFFC00
7FFC03FFFFFE00
7FF803FFFFFF00
FFF801FFFFFFC0
FFF800FFFFFFE0
FFF0007FFFFFF0
FFF0003FFFFFF8
FFF0001FFF8000
FFF00000FF8000
FFF00000FF8000
FFF00000FF8000
FFF00000FF8000
FFF00000FF8000
7FF80000FF8000
7FF80000FF8000
7FFC0000FF8000
7FFC0000FF8000
3FFE0000FF8000
3FFF0000FF8000
3FFF8000FF8000
1FFFC000FF8000
1FFFF000FF8000
1FFFFFFFFF8000
0FFFFFFFFFC000
0FFFFFFFFFE000
07FFFFFFFFF000
07FFFFFFFFF800
03FFFFFFFFFC00
01FFFFFFFFFE00
00FFFFFFFFFF00
007FFFFFFFFF80
003FFFFFFFFFC0
000FFFFFFFFFE0
ENDCHAR
STARTCHAR 0027
ENCODING 39
SWIDTH 208 0
DWIDTH 20 0
BBX 11 23 10 70
BITMAP
FFE0
FFE0
FFE0
FFE0
FFE0
FFE0
FFE0
FFE0
FFE0
FFE0
FFE0
FFE0
FFE0
FFE0
FFE0
FFE0
FFE0
FFE0
FFE0
FF80
FC00
F000
C000
ENDCHAR
STARTCHAR 0028
ENCODING 40
SWIDTH 406 0
DWIDTH 39 0
BBX 28 83 5 -5
BITMAP
0003FFF0
0007FFE0
000FFFC0
001FFF80
003FFF00
007FFE00
00FFFC00
00FFF800
01FFF000
03FFF000
03FFE000
07FFE000
07FFC000
07FFC000
0FFF8000
0FFF8000
1FFF8000
1FFF0000
1FFF0000
3FFF0000
3FFE0000
3FFE0000
3FFE0000
3FFE0000
7FFC0000
7FFC0000
7FFC0000
7FFC0000
7FFC0000
7FFC0000
FFFC0000
FFF80000
FFF80000
FFF80000
FFF80000
FFF80000
FFF80000
FFF80000
FFF80000
FFF80000
FFF80000
FFF80000
FFF80000
FFF80000
FFF80000
FFF80000
FFF80000
FFF80000
FFF80000
FFF80000
FFF80000
FFF80000
FFF80000
FFFC0000
7FFC0000
7FFC0000
7FFC0000
7FFC0000
7FFC0000
7FFE0000
3FFE0000
3FFE0000
3FFE0000
3FFF0000
1FFF0000
1FFF0000
1FFF8000
0FFF8000
0FFF8000
0FFFC000
07FFC000
07FFE000
03FFE000
03FFF000
01FFF000
01FFF800
00FFFC00
007FFC00
007FFE00
003FFF00
001FFF80
000FFFC0
0007FFF0
ENDCHAR
STARTCHAR 0029
ENCODING 41
SWIDTH 385 0
DWIDTH 37 0
BBX 29 84 4 -4
BITMAP
FFFE0000
3FFF0000
1FFF8000
0FFFC000
07FFE000
03FFF000
01FFF000
01FFF800
00FFF800
007FFC00
007FFC00
003FFE00
003FFE00
001FFF00
001FFF00
001FFF80
000FFF80
000FFF80
000FFFC0
0007FFC0
0007FFC0
0007FFE0
0007FFE0
0003FFE0
0003FFE0
0003FFE0
0003FFF0
0003FFF0
0001FFF0
0001FFF0
0001FFF0
0001FFF0
0001FFF0
0001FFF0
0001FFF8
0001FFF8
0001FFF8
0001FFF8
0001FFF8
0001FFF8
0001FFF8
0001FFF8
0001FFF8
0001FFF8
0001FFF8
0001FFF8
0001FFF8
0001FFF8
0001FFF8
0001FFF0
0001FFF0
0001FFF0
0001FFF0
0001FFF0
0001FFF0
0001FFF0
0001FFF0
0003FFE0
0003FFE0
0003FFE0
0003FFE0
0003FFC0
0007FFC0
0007FFC0
0007FFC0
0007FF80
000FFF80
000FFF80
000FFF00
001FFF00
001FFF00
003FFE00
003FFE00
007FFE00
007FFC00
00FFFC00
00FFF800
01FFF800
03FFF000
07FFF000
0FFFE000
1FFFC000
3FFF8000
FFFF0000
ENDCHAR
STARTCHAR 002A
ENCODING 42
SWIDTH 604 0
DWIDTH 58 0
BBX 46 53 4 21
BITMAP
000007C00000
000007C00000
000007C00000
000007C00000
000007C00000
000007C00000
000007C00000
000007C00000
000007C00000
000007C00010
180007C00070
3C0007C000F8
3F0007C003FC
3F8007C007F8
1FE007C01FE0
07F007C03FC0
03FC07C07F00
00FE07C1FE00
007F87C3F800
001FC7CFF000
000FF7DFC000
0003FFFF0000
0001FFFE0000
00007FF80000
00001FF00000
00007FF80000
0000FFFC0000
0003FFFF0000
000FFFFFC000
001FF7BFF000
007FC78FFC00
01FF8787FF00
03FE0781FF80
0FF807807FE0
1FF007801FF8
3FC007800FFC
FF00078003F8
FE00078000F8
780007800078
200007800018
000007800000
000007800000
000007800000
000007800000
000007800000
000007800000
000007800000
000007800000
000007800000
000007800000
000007000000
000006000000
000004000000
ENDCHAR
STARTCHAR 002B
ENCODING 43
SWIDTH 583 0
DWIDTH 56 0
BBX 46 33 2 19
BITMAP
0000FFF00000
0000FFF00000
0000FFF00000
0000FFF00000
0000FFF00000
0000FFF00000
0000FFF00018
0000FFF0003C
0000FFF00078
0000FFF001F0
0000FFF00FE0
0003FFFFFFC0
000FFFFFFF80
001FFFFFFF00
003FFFFFFE00
007FFFFFFC00
00FFFFFFF800
01FFFFFFF000
03FFFFFFE000
07FFFFFFC000
0FFFFFFF8000
1FFFFFFE0000
3FC0FFF00000
7E00FFF00000
F800FFF00000
6000FFF00000
0000FFF00000
0000FFF00000
0000FFF00000
0000FFF00000
0000FFF00000
0000FFF00000
0000FFF00000
ENDCHAR
STARTCHAR 002C
ENCODING 44
SWIDTH 260 0
DWIDTH 25 0
BBX 10 26 5 -13
BITMAP
FFC0
FFC0
FFC0
FFC0
FFC0
FFC0
FFC0
FFC0
FFC0
FFC0
FFC0
FFC0
FFC0
FFC0
FFC0
FFC0
FFC0
FFC0
FFC0
FFC0
FFC0
FFC0
FFC0
FFC0
FC00
C000
ENDCHAR
STARTCHAR 002D
ENCODING 45
SWIDTH 572 0
DWIDTH 55 0
BBX 45 20 3 15
BITMAP
000000000010
000000000038
000000000070
0000000001F0
000000000FE0
0007FFFFFFC0
001FFFFFFF80
003FFFFFFF00
007FFFFFFE00
00FFFFFFFC00
01FFFFFFF800
03FFFFFFF000
07FFFFFFE000
0FFFFFFFC000
1FFFFFFF8000
3FFFFFFF0000
7F0000000000
FC0000000000
F00000000000
400000000000
ENDCHAR
STARTCHAR 002E
ENCODING 46
SWIDTH 302 0
DWIDTH 29 0
BBX 12 17 8 0
BITMAP
0F00
1FC0
3FE0
3FE0
7FF0
7FF0
7FF0
FFF0
FFF0
FFF0
7FF0
7FF0
7FF0
7FE0
3FE0
1FC0
0F00
ENDCHAR
STARTCHAR 002F
ENCODING 47
SWIDTH 562 0
DWIDTH 54 0
BBX 48 76 5 -2
BITMAP
000000001FFF
000000003FFE
000000003FFE
000000007FFC
000000007FFC
00000000FFF8
00000000FFF8
00000001FFF0
00000001FFF0
00000003FFE0
00000003FFE0
00000007FFE0
00000007FFC0
00000007FFC0
0000000FFF80
0000000FFF80
0000001FFF00
0000001FFF00
0000003FFE00
0000003FFE00
0000007FFC00
0000007FFC00
000000FFF800
000000FFF800
000000FFF000
000001FFF000
000001FFE000
000003FFE000
000003FFE000
000007FFC000
000007FFC000
00000FFF8000
00000FFF8000
00001FFF0000
00001FFF0000
00001FFE0000
00003FFE0000
00003FFC0000
00007FFC0000
00007FF80000
0000FFF80000
0000FFF00000
0001FFF00000
0001FFE00000
0003FFE00000
0003FFC00000
0007FFC00000
0007FFC00000
0007FF800000
000FFF800000
000FFF000000
001FFF000000
001FFE000000
003FFE000000
003FFC000000
007FFC000000
007FF8000000
00FFF8000000
00FFF0000000
00FFF0000000
01FFE0000000
01FFE0000000
03FFC0000000
03FFC0000000
07FF80000000
07FF80000000
0FFF80000000
0FFF00000000
1FFF00000000
1FFE00000000
3FFE00000000
3FFC00000000
3FFC00000000
7FF800000000
7F8000000000
E00000000000
ENDCHAR
STARTCHAR 0030
ENCODING 48
SWIDTH 729 0
DWIDTH 70 0
BBX 55 74 5 0
BITMAP
000003FFC00000
00003FFFFC0000
0001FFFFFF8000
0007FFFFFFE000
001FFFFFFFF800
003FFFFFFFFC00
00FFFFFFFFFE00
01FFFFFFFFFF80
03FFFFFFFFFFC0
07FFFFFFFFFFC0
0FFFFFFFFFFFE0
0FFFFE00FFFFF0
1FFFF0001FFFF0
3FFFE00007FFF8
3FFF800003FFF8
7FFF000001FFFC
7FFF000000FFFC
7FFE000000FFFC
7FFE0000007FFE
FFFC0000007FFE
FFFC0000007FFE
FFFC0000007FFE
FFF80000003FFE
FFF80000003FFE
FFF80000003FFE
FFF80000003FFE
FFF80000003FFE
FFF80000003FFE
FFF80000003FFE
FFF80000003FFE
FFF80000003FFE
FFF80000003FFE
FFF80000003FFE
FFF80000003FFE
FFF80000003FFE
FFF80000003FFE
FFF80000003FFE
FFF80000003FFE
FFF80000003FFE
FFF80000003FFE
FFF80000003FFE
FFF80000003FFE
FFF80000001FFE
FFF80000001FFE
FFF80000001FFE
FFF80000001FFE
FFF80000001FFE
FFF80000001FFE
FFF80000001FFE
FFF80000003FFE
FFF80000003FFE
FFF80000003FFE
FFFC0000003FFE
FFFC0000003FFE
FFFC0000007FFE
7FFE0000007FFE
7FFE000000FFFC
7FFF000000FFFC
7FFF800001FFFC
3FFFC00003FFF8
3FFFE00007FFF8
1FFFF0001FFFF0
1FFFFE007FFFF0
0FFFFFFFFFFFE0
07FFFFFFFFFFC0
03FFFFFFFFFF80
01FFFFFFFFFF00
00FFFFFFFFFE00
007FFFFFFFFC00
001FFFFFFFF000
0007FFFFFFE000
0001FFFFFF0000
00003FFFFC0000
000003FFC00000
ENDCHAR
STARTCHAR 0031
ENCODING 49
SWIDTH 302 0
DWIDTH 29 0
BBX 21 80 2 -2
BITMAP
000008
000018
000038
000078
0000F8
0001F8
0003F8
0007F8
000FF8
001FF8
003FF8
007FF8
00FFF8
01FFF8
03FFF8
07FFF8
0FFFF8
1FFFF8
3FFFF8
7FFFF8
FFFFF8
00FFF8
00FFF8
00FFF8
00FFF8
00FFF8
00FFF8
00FFF8
00FFF8
00FFF8
00FFF8
00FFF8
00FFF8
00FFF8
00FFF8
00FFF8
00FFF8
00FFF8
00FFF8
00FFF8
00FFF8
00FFF8
00FFF8
00FFF8
00FFF8
00FFF8
00FFF8
00FFF8
00FFF8
00FFF8
00FFF8
00FFF8
00FFF8
00FFF8
00FFF8
00FFF8
00FFF8
00FFF8
00FFF8
00FFF8
00FFF8
00FFF8
00FFF8
00FFF8
00FFF8
00FFF8
00FFF8
00FFF8
00FFF8
00FFF8
00FFF8
00FFF8
00FFF8
00FFF8
00FFF8
00FFF8
00FFF8
00FFE0
00FE00
00C000
ENDCHAR
STARTCHAR 0032
ENCODING 50
SWIDTH 677 0
DWIDTH 65 0
BBX 62 74 3 0
BITMAP
0000007FF8000000
000007FFFF800000
00003FFFFFE00000
0000FFFFFFF80000
0001FFFFFFFE0000
0007FFFFFFFF8000
000FFFFFFFFFC000
001FFFFFFFFFE000
003FFFFFFFFFF000
007FFFFFFFFFF800
00FFFFFFFFFFFC00
00FFFFE00FFFFC00
01FFFF0001FFFE00
00FFFE00007FFE00
007FF800001FFF00
001FF000000FFF00
000FE000000FFF80
0007C0000007FF80
0001C0000007FF80
000080000007FF80
000000000007FF80
000000000007FF80
000000000007FF80
000000000007FF80
000000000007FF80
000000000007FF80
00000000000FFF80
00000000000FFF80
00000000001FFF80
00000000003FFF00
00000000007FFF00
0000000000FFFF00
0000000001FFFE00
0000000003FFFE00
0000000007FFFC00
000000000FFFF800
000000000FFFF000
000000001FFFF000
000000003FFFE000
000000007FFFC000
00000000FFFF8000
00000001FFFF0000
00000003FFFE0000
00000007FFF80000
0000000FFFF00000
0000001FFFE00000
0000003FFFC00000
0000007FFF800000
000000FFFF000000
000001FFFE000000
000003FFFC000000
000007FFF8000000
00000FFFF0000000
00001FFFE0000000
00003FFFC0000000
00007FFF80000000
0000FFFF00000000
0001FFFE00000000
0003FFFC00000000
0007FFF800000000
0007FFF000000000
000FFFF000000000
001FFFE000000000
003FFFFFFFFFFFFC
007FFFFFFFFFFFF8
00FFFFFFFFFFFFF0
01FFFFFFFFFFFFE0
03FFFFFFFFFFFFC0
07FFFFFFFFFFFF80
0FFFFFFFFFFFFF00
1FFFFFFFFFFFFE00
3FFFFFFFFFFFFC00
7FFFFFFFFFFFF800
FFFFFFFFFFFFF000
ENDCHAR
STARTCHAR 0033
ENCODING 51
SWIDTH 666 0
DWIDTH 64 0
BBX 51 74 3 -1
BITMAP
000003FE000000
00001FFFE00000
00007FFFF80000
0001FFFFFC0000
0003FFFFFF0000
0007FFFFFF8000
000FFFFFFFC000
001FFFFFFFE000
003FFFFFFFF000
007FFFFFFFF800
007FFFFFFFF800
00FFFE07FFFC00
01FFF801FFFC00
01FFF000FFFE00
00FFE0007FFE00
007FE0003FFE00
003FC0003FFF00
001FC0001FFF00
000FC0001FFF00
000780000FFF00
000380000FFF00
000100000FFF00
000000000FFF00
000000000FFF00
000000000FFF00
000000000FFE00
000000000FFE00
000000001FFE00
000000001FFC00
000000003FFC00
000000003FFC00
000000007FF800
00000000FFF000
00000001FFF800
00000007FFFC00
0000001FFFFE00
0000001FFFFF00
00000001FFFF00
000000003FFF80
000000001FFF80
000000000FFFC0
0000000007FFC0
0000000007FFC0
0000000003FFE0
0000000003FFE0
0000000003FFE0
0000000001FFE0
0000000001FFE0
0000000001FFE0
0000000001FFE0
0000000001FFE0
0000000001FFE0
0000000001FFE0
0000000001FFE0
0000000003FFC0
0000000003FFC0
0000000007FFC0
0000000007FFC0
000000000FFF80
000000000FFF80
000000001FFF80
000000003FFF00
00000000FFFF00
003FFFFFFFFF00
007FFFFFFFFE00
00FFFFFFFFFE00
01FFFFFFFFFC00
03FFFFFFFFFC00
07FFFFFFFFF800
0FFFFFFFFFF000
1FFFFFFFFFE000
3FFFFFFFFFC000
7FFFFFFFFF8000
FFFFFFFFFE0000
ENDCHAR
STARTCHAR 0034
ENCODING 52
SWIDTH 750 0
DWIDTH 72 0
BBX 61 76 4 -2
BITMAP
000000001FFFC000
000000001FFF8000
000000003FFF8000
000000007FFF0000
000000007FFE0000
00000000FFFE0000
00000001FFFC0000
00000003FFF80000
00000003FFF00000
00000007FFF00000
0000000FFFE40000
0000001FFFCC0000
0000001FFF9C0000
0000003FFF9C0000
0000007FFF3C0000
0000007FFE7C0000
000000FFFCFC0000
000001FFFDFC0000
000003FFFBFC0000
000003FFF7FC0000
000007FFEFFC0000
00000FFFEFFC0000
00000FFFDFFC0000
00001FFFBFFC0000
00003FFF3FFC0000
00007FFF3FFC0000
00007FFE3FFC0000
0000FFFC3FFC0000
0001FFF83FFC0000
0003FFF83FFC0000
0003FFF03FFC0000
0007FFE03FFC0000
000FFFC03FFC0000
000FFFC03FFC0000
001FFF803FFC0000
003FFF003FFC0000
007FFE003FFC0000
007FFE003FFC0000
00FFFC003FFC0000
01FFF8003FFC0000
01FFF0003FFC0000
03FFF0003FFC0000
07FFE0003FFC0000
0FFFC0003FFC0000
0FFFC0003FFC0000
1FFF80003FFC0000
3FFF00003FFC0000
7FFE00003FFC0000
7FFE00003FFC0000
FFFC00003FFC0000
7FFFFFFFFFFFFFF8
7FFFFFFFFFFFFFE0
3FFFFFFFFFFFFFC0
1FFFFFFFFFFFFF80
0FFFFFFFFFFFFF00
07FFFFFFFFFFFE00
07FFFFFFFFFFFC00
03FFFFFFFFFFF800
01FFFFFFFFFFF000
00FFFFFFFFFFE000
007FFFFFFFFF8000
000000003FFC0000
000000003FFC0000
000000003FFC0000
000000003FFC0000
000000003FFC0000
000000003FFC0000
000000003FFC0000
000000003FFC0000
000000003FFC0000
000000003FFC0000
000000003FFC0000
000000003FFC0000
000000003FF80000
000000003F800000
0000000030000000
ENDCHAR
STARTCHAR 0035
ENCODING 53
SWIDTH 604 0
DWIDTH 58 0
BBX 57 74 1 -1
BITMAP
007FFFFFFFFFFF80
007FFFFFFFFFFF00
007FFFFFFFFFFE00
007FFFFFFFFFFC00
007FFFFFFFFFF800
007FFFFFFFFFF000
007FFFFFFFFFE000
007FFFFFFFFFC000
007FFFFFFFFF8000
007FFFFFFFFF0000
007FFFFFFFFE0000
007FF80000000000
007FF80000000000
007FF80000000000
007FF80000000000
007FF80000000000
007FF80000000000
007FF80000000000
007FF80000000000
007FF80000000000
007FF80000000000
007FF80000000000
007FFFFC00000000
007FFFFFC0000000
007FFFFFF8000000
007FFFFFFE000000
007FFFFFFF800000
007FFFFFFFC00000
007FFFFFFFE00000
007FFFFFFFF80000
007FFFFFFFFC0000
007FFFFFFFFC0000
007FFFFFFFFE0000
00000001FFFF0000
000000007FFF8000
000000001FFF8000
000000000FFFC000
0000000007FFC000
0000000007FFE000
0000000003FFE000
0000000001FFE000
0000000001FFF000
0000000000FFF000
0000000000FFF000
0000000000FFF000
0000000000FFF000
0000000000FFF000
0000000000FFF000
0000000000FFF000
0000000000FFF000
0000000000FFF000
0000000000FFF000
0000000000FFF000
0000000000FFF000
0000000001FFF000
0000000001FFE000
0000000001FFE000
0000000003FFE000
0000000003FFC000
0000000007FFC000
0000000007FFC000
000000000FFF8000
000000001FFF8000
003FFFFFFFFF0000
007FFFFFFFFF0000
00FFFFFFFFFE0000
01FFFFFFFFFE0000
03FFFFFFFFFC0000
07FFFFFFFFFC0000
0FFFFFFFFFF80000
1FFFFFFFFFF00000
3FFFFFFFFFE00000
7FFFFFFFFF800000
FFFFFFFFFE000000
ENDCHAR
STARTCHAR 0036
ENCODING 54
SWIDTH 687 0
DWIDTH 66 0
BBX 52 74 6 0
BITMAP
0000001FFFC000
0000003FFF8000
0000003FFF0000
0000007FFE0000
000000FFFC0000
000001FFFC0000
000001FFF80000
000003FFF00000
000007FFE00000
000007FFC00000
00000FFFC00000
00001FFF800000
00001FFF000000
00003FFF000000
00007FFE000000
0000FFFC000000
0000FFF8000000
0001FFF8000000
0003FFF0000000
0003FFE0000000
0007FFE0000000
0007FFC0000000
000FFF80000000
001FFF80000000
001FFF00000000
003FFE3FC00000
007FFE7FF80000
007FFC7FFE0000
00FFF8FFFF8000
00FFF9FFFFC000
01FFF1FFFFE000
01FFF3FFFFF000
03FFE3FFFFF800
07FFC7FFFFFC00
07FFCFFFFFFE00
0FFF8FFFFFFE00
0FFF800FFFFF00
1FFF00003FFF80
1FFF00000FFF80
1FFE000007FFC0
3FFE000003FFC0
3FFC000003FFE0
7FFC000001FFE0
7FF8000001FFE0
7FF8000000FFE0
7FF8000000FFF0
FFF0000000FFF0
FFF0000000FFF0
FFF0000000FFF0
FFF0000000FFF0
FFF0000000FFF0
FFF0000000FFF0
FFF0000000FFF0
FFF0000001FFF0
7FF8000001FFE0
7FF8000001FFE0
7FFC000003FFE0
7FFC000007FFE0
3FFE00000FFFC0
3FFF00001FFFC0
1FFFC0003FFF80
0FFFE000FFFF00
0FFFFC07FFFF00
07FFFFFFFFFE00
03FFFFFFFFFC00
01FFFFFFFFF800
00FFFFFFFFF000
007FFFFFFFE000
003FFFFFFFC000
000FFFFFFF0000
0007FFFFFE0000
0001FFFFF80000
00007FFFE00000
000007FE000000
ENDCHAR
STARTCHAR 0037
ENCODING 55
SWIDTH 604 0
DWIDTH 58 0
BBX 49 78 7 -4
BITMAP
003FFFFFFFFF80
007FFFFFFFFF80
00FFFFFFFFFF00
01FFFFFFFFFF00
03FFFFFFFFFE00
07FFFFFFFFFE00
0FFFFFFFFFFC00
1FFFFFFFFFFC00
3FFFFFFFFFFC00
7FFFFFFFFFF800
FFFFFFFFFFF800
00000000FFF000
00000000FFF000
00000001FFE000
00000001FFE000
00000003FFC000
00000003FFC000
00000007FF8000
00000007FF8000
0000000FFF0000
0000000FFF0000
0000001FFF0000
0000001FFE0000
0000003FFE0000
0000003FFC0000
0000003FFC0000
0000007FF80000
0000007FF80000
000000FFF00000
000000FFF00000
000001FFE00000
000001FFE00000
000003FFC00000
000003FFC00000
000007FFC00000
000007FF800000
00000FFF800000
00000FFF000000
00000FFF000000
00001FFE000000
00001FFE000000
00003FFC000000
00003FFC000000
00007FF8000000
00007FF8000000
0000FFF0000000
0000FFF0000000
0001FFF0000000
0001FFE0000000
0003FFE0000000
0003FFC0000000
0007FFC0000000
0007FF80000000
0007FF80000000
000FFF00000000
000FFF00000000
001FFE00000000
001FFE00000000
003FFC00000000
003FFC00000000
007FF800000000
007FF800000000
00FFF800000000
00FFF000000000
01FFF000000000
01FFE000000000
03FFE000000000
03FFC000000000
03FFC000000000
07FF8000000000
07FF8000000000
0FFF0000000000
0FFF0000000000
1FFE0000000000
1FFE0000000000
3FF00000000000
3F000000000000
70000000000000
ENDCHAR
STARTCHAR 0038
ENCODING 56
SWIDTH 666 0
DWIDTH 64 0
BBX 50 74 5 0
BITMAP
00000FF8000000
0000FFFF800000
0003FFFFE00000
000FFFFFF80000
001FFFFFFE0000
003FFFFFFF0000
00FFFFFFFF8000
00FFFFFFFFC000
01FFFFFFFFE000
03FFFFFFFFF000
07FFFFFFFFF800
07FFFC1FFFF800
0FFFF003FFFC00
0FFFC001FFFC00
0FFFC000FFFC00
1FFF80007FFE00
1FFF80007FFE00
1FFF00003FFE00
1FFF00003FFE00
1FFF00003FFE00
1FFF00003FFE00
1FFF00003FFE00
1FFF00003FFE00
1FFF80007FFE00
1FFF80007FFC00
0FFFC000FFFC00
0FFFE001FFFC00
0FFFF003FFFC00
0FFFFC0FFFF800
07FFFFFFFFF800
07FFFFFFFFF000
03FFFFFFFFF000
01FFFFFFFFE000
00FFFFFFFFE000
01FFFFFFFFF000
03FFFFFFFFF800
07FFFFFFFFFC00
0FFFFFFFFFFE00
1FFFFFFFFFFE00
1FFFFFFFFFFF00
3FFFFC07FFFF00
3FFFE001FFFF80
7FFFC0007FFF80
7FFF00003FFF80
7FFE00001FFF80
7FFE00001FFFC0
FFFC00000FFFC0
FFFC00000FFFC0
FFF8000007FFC0
FFF8000007FFC0
FFF8000007FFC0
FFF8000007FFC0
FFF8000007FFC0
FFF8000007FFC0
FFF8000007FFC0
FFFC00000FFFC0
FFFC00000FFFC0
7FFE00001FFF80
7FFF00003FFF80
7FFF80003FFF80
7FFFC000FFFF80
3FFFE001FFFF00
3FFFFC07FFFF00
1FFFFFFFFFFE00
1FFFFFFFFFFE00
0FFFFFFFFFFC00
07FFFFFFFFF800
03FFFFFFFFF000
01FFFFFFFFE000
00FFFFFFFFC000
003FFFFFFF0000
000FFFFFFC0000
0003FFFFF00000
00001FFE000000
ENDCHAR
STARTCHAR 0039
ENCODING 57
SWIDTH 697 0
DWIDTH 67 0
BBX 53 77 6 -3
BITMAP
000007FF000000
00003FFFE00000
0001FFFFFC0000
0007FFFFFF0000
000FFFFFFF8000
003FFFFFFFE000
007FFFFFFFF000
00FFFFFFFFF800
01FFFFFFFFFC00
03FFFFFFFFFE00
07FFFFFFFFFF00
0FFFFE01FFFF80
1FFFF0007FFF80
1FFFE0001FFFC0
3FFF800007FFE0
3FFF000003FFE0
7FFE000001FFF0
7FFC000001FFF0
7FFC000000FFF0
7FF8000000FFF0
FFF8000000FFF8
FFF00000007FF8
FFF00000007FF8
FFF00000007FF8
FFF00000007FF8
FFF00000007FF8
FFF00000007FF8
FFF0000000FFF8
FFF0000000FFF8
7FF8000000FFF8
7FF8000000FFF0
7FF8000001FFF0
7FFC000001FFF0
3FFE000003FFF0
3FFF000003FFE0
1FFF800007FFE0
1FFFE00007FFE0
0FFFFF000FFFC0
07FFFFFFEFFFC0
03FFFFFFFFFF80
01FFFFFFDFFF80
00FFFFFFBFFF00
007FFFFFBFFF00
003FFFFF7FFE00
001FFFFF7FFE00
0007FFFEFFFC00
0001FFFCFFFC00
00007FFDFFF800
00000FFBFFF800
00000003FFF000
00000007FFE000
00000007FFE000
0000000FFFC000
0000001FFF8000
0000001FFF8000
0000003FFF0000
0000007FFE0000
0000007FFC0000
000000FFFC0000
000000FFF80000
000001FFF00000
000003FFE00000
000003FFE00000
000007FFC00000
00000FFF800000
00001FFF000000
00001FFE000000
00003FFC000000
00007FF8000000
00007FF0000000
0000FFE0000000
0001FFC0000000
0003FF80000000
0007FF00000000
000FFC00000000
001FC000000000
00300000000000
ENDCHAR
STARTCHAR 003A
ENCODING 58
SWIDTH 302 0
DWIDTH 29 0
BBX 12 50 8 0
BITMAP
0F00
1FC0
3FE0
3FE0
7FF0
7FF0
7FF0
FFF0
FFF0
FFF0
7FF0
7FF0
7FF0
3FE0
3FE0
1FC0
0F00
0000
0000
0000
0000
0000
0000
0000
0000
0000
0000
0000
0000
0000
0000
0000
0000
0F00
1FC0
3FE0
3FE0
7FF0
7FF0
7FF0
FFF0
FFF0
FFF0
7FF0
7FF0
7FF0
7FE0
3FE0
1FC0
0F00
ENDCHAR
STARTCHAR 003B
ENCODING 59
SWIDTH 291 0
DWIDTH 28 0
BBX 12 58 8 -11
BITMAP
0F00
3F80
3FC0
7FE0
7FE0
FFE0
FFF0
FFF0
FFF0
FFF0
FFF0
FFF0
7FE0
7FE0
7FC0
3F80
0F00
0000
0000
0000
0000
0000
0000
0000
0000
0000
0000
0000
0000
0000
0000
0000
0000
0000
0000
0000
FF80
FF80
FF80
FF80
FF80
FF80
FF80
FF80
FF80
FF80
FF80
FF80
FF80
FF80
FF80
FF80
FF80
FF80
FF80
FF00
F800
8000
ENDCHAR
STARTCHAR 003C
ENCODING 60
SWIDTH 479 0
DWIDTH 46 0
BBX 42 52 4 11
BITMAP
0000003FFF00
0000007FFE00
000000FFFC00
000001FFF800
000003FFF000
000007FFF000
00000FFFE000
00001FFFC000
00003FFF8000
00007FFF0000
0000FFFE0000
0001FFFC0000
0003FFF80000
0007FFF00000
000FFFE00000
001FFFC00000
003FFF800000
007FFF000000
00FFFE000000
01FFFC000000
03FFF8000000
07FFF0000000
0FFFE0000000
1FFFC0000000
7FFF80000000
FFFF80000000
FFFFC0000000
7FFFC0000000
3FFFE0000000
1FFFF0000000
0FFFF8000000
03FFFC000000
01FFFE000000
00FFFF000000
007FFF800000
003FFFC00000
001FFFE00000
000FFFF00000
0007FFF80000
0003FFFC0000
0001FFFE0000
0000FFFF0000
00007FFF8000
00003FFFC000
00001FFFE000
00000FFFF000
000007FFF800
000003FFFC00
000001FFFE00
000000FFFF00
0000007FFF80
0000003FFFC0
ENDCHAR
STARTCHAR 003D
ENCODING 61
SWIDTH 572 0
DWIDTH 55 0
BBX 42 37 5 19
BITMAP
000000000040
000000000180
000000000F00
000000007E00
003FFFFFFC00
007FFFFFF800
00FFFFFFF000
01FFFFFFE000
03FFFFFFC000
07FFFFFF8000
0FFFFFFF0000
1FFFFFFE0000
3FFFFFFC0000
7FFFFFF80000
FFFFFFF00000
000000000000
000000000000
000000000000
000000000000
000000000000
000000000000
000000000000
000000000000
000000000040
000000000380
000000003F00
003FFFFFFE00
007FFFFFFC00
00FFFFFFF800
01FFFFFFF000
03FFFFFFE000
07FFFFFFC000
0FFFFFFF8000
1FFFFFFF0000
3FFFFFFE0000
7FFFFFFC0000
FFFFFFF80000
ENDCHAR
STARTCHAR 003E
ENCODING 62
SWIDTH 552 0
DWIDTH 53 0
BBX 42 52 4 11
BITMAP
FFFF00000000
7FFF80000000
3FFFC0000000
1FFFE0000000
0FFFF0000000
07FFF8000000
03FFFC000000
01FFFE000000
00FFFF000000
007FFF800000
003FFFC00000
001FFFE00000
000FFFF00000
0007FFFC0000
0003FFFE0000
0001FFFF0000
0000FFFF8000
00007FFFC000
00003FFFE000
00001FFFF000
00000FFFF800
000007FFFC00
000003FFFE00
000001FFFF00
000000FFFF80
0000007FFFC0
0000003FFF80
0000007FFF00
000000FFFE00
000001FFFC00
000003FFF800
00000FFFF000
00001FFFE000
00003FFFC000
00007FFF8000
0000FFFF0000
0001FFFE0000
0003FFFC0000
0007FFF80000
000FFFF00000
001FFFE00000
003FFFC00000
007FFF800000
00FFFF000000
01FFFE000000
03FFFC000000
07FFF8000000
0FFFF0000000
1FFFE0000000
3FFFC0000000
7FFF80000000
FFFF00000000
ENDCHAR
STARTCHAR 003F
ENCODING 63
SWIDTH 437 0
DWIDTH 42 0
BBX 39 89 4 -15
BITMAP
000FFF8000
007FFFFC00
01FFFFFF00
03FFFFFFC0
07FFFFFFE0
0FFFFFFFF0
1FFFFFFFF8
3FFFFFFFF8
3FFFFFFFFC
7FFFFFFFFC
7FFC007FFE
FFC0003FFE
FE00001FFE
F800001FFE
F000001FFE
E000001FFE
C000001FFE
8000001FFC
0000003FFC
0000003FFC
0000003FFC
0000003FF8
0000007FF8
0000007FF0
000000FFF0
000001FFE0
000003FFE0
000007FFC0
00001FFFC0
00003FFF80
0000FFFF00
0003FFFE00
000FFFFE00
000FFFFC00
000FFFF800
000FFFF000
000FFFE000
000FFF8000
000FFF0000
000FFE0000
000FFC0000
000FF80000
000FF80000
000FF80000
000FF80000
000FF80000
000FF80000
000FF80000
000FF80000
000FF80000
000FF80000
000FF80000
000FF80000
000FF80000
000FF80000
000FF80000
000FF80000
000FF80000
000FF80000
000FF80000
000FF80000
000FF80000
000FE00000
000F000000
000C000000
0000000000
0000000000
0000000000
0000000000
0000000000
0000000000
0000000000
0000F00000
0001FC0000
0001FE0000
0003FE0000
0003FF0000
0007FF0000
0007FF8000
0007FF8000
0007FF8000
0007FF8000
0007FF8000
0007FF0000
0003FF0000
0003FE0000
0003FE0000
0001FC0000
0000F00000
ENDCHAR
STARTCHAR 0040
ENCODING 64
SWIDTH 875 0
DWIDTH 84 0
BBX 70 74 5 0
BITMAP
00000003FFC0000000
0000003FFFFC000000
000001FFFFFF800000
00000FFFFFFFE00000
00001FFFFFFFF80000
00007FFFFFFFFC0000
0001FFFFFFFFFF0000
0003FFFFFFFFFF8000
0007FFFE007FFFC000
000FFFF0000FFFE000
001FFF800001FFF000
003FFE000000FFF800
007FFC0000003FFC00
00FFF80000001FFE00
01FFE00000000FFE00
01FFC000000007FF00
03FF8000000003FF80
07FF0000000001FF80
07FF0000000000FFC0
0FFE000FFFF0007FC0
0FFC001FFFFC007FE0
1FF8003FFFFC003FE0
1FF8007FFFFE003FF0
3FF000FFFFFF001FF0
3FF001FFFFFF001FF0
3FE003FFFFFF800FF8
7FE007FFFFFF800FF8
7FE00FC003FF800FF8
7FC0100000FFC007FC
7FC00000007FC007FC
FFC00000007FC007FC
FF800000007FC007FC
FF8001FFFE7FC007FC
FF8003FFFE7FC003FC
FF8007FFFE7FC003FC
FF800FFFFE7FC003FC
FF800FFFFE7FC003FC
FF801FFFFE7FC003FC
FF801FFFFE7FC007FC
FF801FFFFE7FC007FC
FF803FF8007FC007FC
FF803FF0007FC007FC
FFC03FE0007FC00FFC
7FC03FE0007FC01FF8
7FC03FE0007FC03FF8
7FC03FF0007FC0FFF8
7FE03FFFFFFFFFFFF0
7FE01FFFFFFFFFFFF0
3FE01FFFFFFFFFFFE0
3FF00FFFFFFFFFFFC0
3FF00FFFFFFFFFFF80
1FF803FFFFFFFFFE00
1FFC01FFFFFFFFFC00
0FFC007FFFFFFFE000
0FFE0007FE1FFE0000
07FF00000000000000
07FF80000000000000
03FFC0000000000000
01FFE0000000000000
00FFF0000000000000
00FFF8000000001800
007FFE000000003C00
003FFF000000007E00
001FFFC0000003FF00
000FFFF800001FFF80
0007FFFF8007FFFF80
0001FFFFFFFFFFFFC0
0000FFFFFFFFFFFF80
00003FFFFFFFFFFE00
00001FFFFFFFFFF800
000007FFFFFFFFE000
000000FFFFFFFF0000
0000001FFFFFF80000
00000001FFFE000000
ENDCHAR
STARTCHAR 0041
ENCODING 65
SWIDTH 937 0
DWIDTH 90 0
BBX 91 77 -6 -3
BITMAP
000000000006000000000000
000000000007000000000000
00000000000F000000000000
00000000001F800000000000
00000000001F800000000000
00000000003FC00000000000
00000000003FE00000000000
00000000007FE00000000000
00000000007FF00000000000
0000000000FFF00000000000
0000000001FFF80000000000
0000000001FFFC0000000000
0000000003FFFC0000000000
0000000003FFFE0000000000
0000000007FFFE0000000000
000000000FFFFF0000000000
000000000FFFFF8000000000
000000001FFFFF8000000000
000000001FFFFFC000000000
000000003FFFFFC000000000
000000007FFFFFE000000000
000000007FFFFFF000000000
00000000FFF9FFF000000000
00000000FFF9FFF800000000
00000001FFF0FFFC00000000
00000003FFF07FFC00000000
00000003FFE07FFE00000000
00000007FFC03FFE00000000
00000007FFC03FFF00000000
0000000FFF801FFF80000000
0000000FFF801FFF80000000
0000001FFF000FFFC0000000
0000003FFF0007FFC0000000
0000003FFE0007FFE0000000
0000007FFCFFFFFFF0000000
0000007FFDFFFFFFF0000000
000000FFFBFFFFFFF8000000
000001FFFBFFFFFFF8000000
000001FFF7FFFFFFFC000000
000003FFF7FFFFFFFE000000
000003FFEFFFFFFFFE000000
000007FFFFFFFFFFFF000000
00000FFFDFFFFFFFFF000000
00000FFFBFFFFFFFFF800000
00001FFFBFFFFFFFFFC00000
00001FFF00000007FFC00000
00003FFF00000003FFE00000
00007FFE00000001FFE00000
00007FFE00000001FFF00000
0000FFFC00000000FFF80000
0000FFF800000000FFF80000
0001FFF8000000007FFC0000
0003FFF0000000003FFC0000
0003FFF0000000003FFE0000
0007FFE0000000001FFF0000
0007FFE0000000001FFF0000
000FFFC0000000000FFF8000
000FFF800000000007FF8000
001FFF800000000007FFC000
003FFF000000000003FFE000
003FFE000000000003FFE000
007FFE000000000001FFF000
007FFC000000000000FFF000
00FFF8000000000000FFF800
01FFF80000000000007FFC00
01FFF00000000000007FFC00
03FFE00000000000003FFE00
03FFE00000000000001FFE00
07FFC00000000000001FFF00
0FFF800000000000000FFF80
0FFF000000000000000FFF80
1FFF0000000000000007FFC0
1FFE0000000000000003FFC0
3FFC0000000000000003FFE0
7FF80000000000000001FE00
7FC00000000000000001E000
E00000000000000000000000
ENDCHAR
STARTCHAR 0042
ENCODING 66
SWIDTH 708 0
DWIDTH 68 0
BBX 59 75 1 1
BITMAP
FFFFFFFFF0000000
FFFFFFFFFE000000
FFFFFFFFFFC00000
FFFFFFFFFFF00000
FFFFFFFFFFFC0000
FFFFFFFFFFFE0000
FFFFFFFFFFFF8000
FFFFFFFFFFFFC000
FFFFFFFFFFFFE000
FFFFFFFFFFFFF000
FFFFFFFFFFFFF000
FFF000001FFFF800
FFF0000007FFF800
FFF0000003FFF800
FFF0000001FFF800
FFF0000000FFF000
FFF0000000FFF000
FFF0000001FFE000
FFF0000001FFC000
FFF0000003FFC000
FFF0000007FF8000
FFF000000FFF0000
FFF000001FFE0000
FFF000003FF80000
FFF000007FF00000
FFF00000FFE00000
FFF00000FFC00000
FFF00001FF800000
FFF00003FF000000
FFF0000FFE000000
FFF0001FFFE00000
FFF0003FFFFE0000
FFF0007FFFFF8000
FFF000FFFFFFE000
FFF001FFFFFFF000
FFF003FFFFFFF800
FFF007FFFFFFFC00
FFF00FFFFFFFFE00
FFF0000001FFFF00
FFF00000007FFF00
FFF00000003FFF80
FFF00000001FFF80
FFF00000000FFFC0
FFF000000007FFC0
FFF000000007FFC0
FFF000000003FFC0
FFF000000003FFE0
FFF000000003FFE0
FFF000000001FFE0
FFF000000001FFE0
FFF000000001FFE0
FFF000000001FFE0
FFF000000001FFE0
FFF000000001FFE0
FFF000000001FFE0
FFF000000003FFC0
FFF000000003FFC0
FFF000000003FFC0
FFF000000007FFC0
FFF00000000FFF80
FFF00000001FFF80
FFF00000003FFF00
FFF00000007FFF00
FFF0000001FFFE00
FFFFFFFFFFFFFC00
FFFFFFFFFFFFFC00
FFFFFFFFFFFFF800
FFFFFFFFFFFFF000
FFFFFFFFFFFFE000
FFFFFFFFFFFFC000
FFFFFFFFFFFF8000
FFFFFFFFFFFF0000
FFFFFFFFFFFC0000
FFFFFFFFFFF00000
FFFFFFFFFFC00000
ENDCHAR
STARTCHAR 0043
ENCODING 67
SWIDTH 781 0
DWIDTH 75 0
BBX 78 74 2 0
BITMAP
000001FFFFFFFFFFFFFC
00001FFFFFFFFFFFFFF8
00007FFFFFFFFFFFFFF0
0000FFFFFFFFFFFFFFC0
0003FFFFFFFFFFFFFF80
0007FFFFFFFFFFFFFF00
000FFFFFFFFFFFFFFE00
001FFFFFFFFFFFFFFC00
003FFFFFFFFFFFFFF800
007FFFFFFFFFFFFFF000
007FFFFFFFFFFFFFC000
00FFFFE0000000000000
01FFFF80000000000000
01FFFE00000000000000
03FFFC00000000000000
03FFF800000000000000
07FFF000000000000000
07FFE000000000000000
0FFFE000000000000000
0FFFC000000000000000
1FFF8000000000000000
1FFF8000000000000000
3FFF8000000000000000
3FFF0000000000000000
3FFF0000000000000000
3FFE0000000000000000
7FFE0000000000000000
7FFE0000000000000000
7FFC0000000000000000
7FFC0000000000000000
FFFC0000000000000000
FFF80000000000000000
FFF80000000000000000
FFF80000000000000000
FFF80000000000000000
FFF80000000000000000
FFF80000000000000000
FFF80000000000000000
FFF80000000000000000
FFF80000000000000000
FFF80000000000000000
FFF80000000000000000
7FF80000000000000000
7FFC0000000000000000
7FFC0000000000000000
7FFC0000000000000000
7FFC0000000000000000
7FFE0000000000000000
7FFE0000000000000000
3FFF0000000000000000
3FFF0000000000000000
3FFF0000000000000000
1FFF8000000000000000
1FFF8000000000000000
0FFFC000000000000000
0FFFE000000000000000
07FFE000000000000000
07FFF000000000000000
03FFF800000000000000
01FFFC00000000000000
01FFFE00000000000000
00FFFF80000000000000
007FFFE00000000000F8
003FFFFFFFFFFFFFFFF0
003FFFFFFFFFFFFFFFE0
001FFFFFFFFFFFFFFFE0
000FFFFFFFFFFFFFFFC0
0007FFFFFFFFFFFFFF80
0003FFFFFFFFFFFFFF00
0000FFFFFFFFFFFFFE00
00007FFFFFFFFFFFFC00
00003FFFFFFFFFFFF800
00000FFFFFFFFFFFF000
000001FFFFFFFFFFE000
ENDCHAR
STARTCHAR 0044
ENCODING 68
SWIDTH 875 0
DWIDTH 84 0
BBX 75 75 1 0
BITMAP
FFFFFFFFFFFF80000000
FFFFFFFFFFFFF0000000
FFFFFFFFFFFFFE000000
FFFFFFFFFFFFFF800000
FFFFFFFFFFFFFFC00000
FFFFFFFFFFFFFFF00000
FFFFFFFFFFFFFFF80000
FFFFFFFFFFFFFFFC0000
FFFFFFFFFFFFFFFE0000
FFFFFFFFFFFFFFFF0000
FFFFFFFFFFFFFFFF8000
FFF000000003FFFF8000
FFF0000000007FFFC000
FFF0000000001FFFE000
FFF0000000000FFFF000
FFF00000000007FFF000
FFF00000000003FFF800
FFF00000000001FFF800
FFF00000000000FFFC00
FFF000000000007FFC00
FFF000000000007FFE00
FFF000000000003FFE00
FFF000000000003FFF00
FFF000000000001FFF00
FFF000000000000FFF80
FFF000000000000FFF80
FFF0000000000007FF80
FFF0000000000007FFC0
FFF0000000000007FFC0
FFF0000000000003FFC0
FFF0000000000003FFC0
FFF0000000000003FFC0
FFF0000000000003FFE0
FFF0000000000001FFE0
FFF0000000000001FFE0
FFF0000000000001FFE0
FFF0000000000001FFE0
FFF0000000000001FFE0
FFF0000000000001FFE0
FFF0000000000001FFE0
FFF0000000000001FFE0
FFF0000000000001FFE0
FFF0000000000001FFE0
FFF0000000000003FFE0
FFF0000000000003FFC0
FFF0000000000003FFC0
FFF0000000000003FFC0
FFF0000000000007FFC0
FFF0000000000007FF80
FFF000000000000FFF80
FFF000000000000FFF80
FFF000000000001FFF00
FFF000000000001FFF00
FFF000000000003FFF00
FFF000000000007FFE00
FFF000000000007FFE00
FFF00000000000FFFC00
FFF00000000001FFF800
FFF00000000003FFF800
FFF00000000007FFF000
FFF0000000000FFFF000
FFF0000000003FFFE000
FFF000000000FFFFC000
FFF000000007FFFFC000
FFFFFFFFFFFFFFFF8000
FFFFFFFFFFFFFFFF0000
FFFFFFFFFFFFFFFE0000
FFFFFFFFFFFFFFFC0000
FFFFFFFFFFFFFFF80000
FFFFFFFFFFFFFFF00000
FFFFFFFFFFFFFFC00000
FFFFFFFFFFFFFF800000
FFFFFFFFFFFFFE000000
FFFFFFFFFFFFF8000000
FFFFFFFFFFFF80000000
ENDCHAR
STARTCHAR 0045
ENCODING 69
SWIDTH 822 0
DWIDTH 79 0
BBX 80 74 1 0
BITMAP
000001FFFFFFFFFFFFFC
00001FFFFFFFFFFFFFF8
00007FFFFFFFFFFFFFF0
0000FFFFFFFFFFFFFFE0
0003FFFFFFFFFFFFFFC0
0007FFFFFFFFFFFFFF80
000FFFFFFFFFFFFFFF00
001FFFFFFFFFFFFFFE00
003FFFFFFFFFFFFFFC00
007FFFFFFFFFFFFFF800
007FFFFFFFFFFFFFF000
00FFFFF8000000000000
01FFFFC0000000000000
01FFFF80000000000000
03FFFE00000000000000
03FFFC00000000000000
07FFF800000000000000
07FFF000000000000000
0FFFE000000000000000
0FFFC000000000000000
1FFF8000000000000000
1FFF8000000000000000
1FFF0000000000000000
3FFE0000000000000000
3FFE0000000000000000
3FFC0000000000000000
7FFC0000000000000000
7FFC0000000000000000
7FF80000000000000000
7FF80000000000000000
7FFFFFFFFFFFFFFFF800
7FFFFFFFFFFFFFFFF000
7FFFFFFFFFFFFFFFF000
FFFFFFFFFFFFFFFFE000
FFFFFFFFFFFFFFFFC000
FFFFFFFFFFFFFFFF8000
FFFFFFFFFFFFFFFF0000
FFFFFFFFFFFFFFFE0000
7FFFFFFFFFFFFFFC0000
7FFFFFFFFFFFFFF80000
7FFFFFFFFFFFFFF00000
7FFFFFFFFFFFFFE00000
7FFFFFFFFFFFFFC00000
7FF80000000000000000
7FF80000000000000000
3FFC0000000000000000
3FFC0000000000000000
3FFC0000000000000000
3FFE0000000000000000
1FFE0000000000000000
1FFF0000000000000000
1FFF0000000000000000
0FFF8000000000000000
0FFFC000000000000000
0FFFC000000000000000
07FFE000000000000000
07FFF000000000000000
03FFF800000000000000
03FFFC00000000000000
01FFFE00000000000000
01FFFF00000000000001
00FFFFC0000000000006
007FFFF000000000003C
007FFFFFFFFFFFFFFFF8
003FFFFFFFFFFFFFFFF0
001FFFFFFFFFFFFFFFE0
000FFFFFFFFFFFFFFFC0
000FFFFFFFFFFFFFFF80
0007FFFFFFFFFFFFFF00
0001FFFFFFFFFFFFFE00
0000FFFFFFFFFFFFFC00
00003FFFFFFFFFFFF800
00000FFFFFFFFFFFF000
000001FFFFFFFFFFE000
ENDCHAR
STARTCHAR 0046
ENCODING 70
SWIDTH 604 0
DWIDTH 58 0
BBX 62 77 0 -2
BITMAP
FFFFFFFFFFFFFFFC
FFFFFFFFFFFFFFF8
FFFFFFFFFFFFFFF0
FFFFFFFFFFFFFFC0
FFFFFFFFFFFFFF80
FFFFFFFFFFFFFF00
FFFFFFFFFFFFFE00
FFFFFFFFFFFFFC00
FFFFFFFFFFFFF800
FFFFFFFFFFFFF000
FFFFFFFFFFFFE000
FFF0000000000000
FFF0000000000000
FFF0000000000000
FFF0000000000000
FFF0000000000000
FFF0000000000000
FFF0000000000000
FFF0000000000000
FFF0000000000000
FFF0000000000000
FFF0000000000000
FFF0000000000000
FFF0000000000000
FFF0000000000000
FFF0000000000000
FFF0000000000000
FFF0000000000000
FFF0000000000000
FFF0000000000000
FFF0000000000000
FFFFFFFFFFFE0000
FFFFFFFFFFFC0000
FFFFFFFFFFF80000
FFFFFFFFFFF00000
FFFFFFFFFFE00000
FFFFFFFFFFC00000
FFFFFFFFFF800000
FFFFFFFFFF000000
FFFFFFFFFE000000
FFFFFFFFFC000000
FFFFFFFFF8000000
FFF0000000000000
FFF0000000000000
FFF0000000000000
FFF0000000000000
FFF0000000000000
FFF0000000000000
FFF0000000000000
FFF0000000000000
FFF0000000000000
FFF0000000000000
FFF0000000000000
FFF0000000000000
FFF0000000000000
FFF0000000000000
FFF0000000000000
FFF0000000000000
FFF0000000000000
FFF0000000000000
FFF0000000000000
FFF0000000000000
FFF0000000000000
FFF0000000000000
FFF0000000000000
FFF0000000000000
FFF0000000000000
FFF0000000000000
FFF0000000000000
FFF0000000000000
FFF0000000000000
FFF0000000000000
FFF0000000000000
FFF0000000000000
FF80000000000000
F800000000000000
C000000000000000
ENDCHAR
STARTCHAR 0047
ENCODING 71
SWIDTH 802 0
DWIDTH 77 0
BBX 73 74 1 -1
BITMAP
0000003FFFFFFFFFFF80
000003FFFFFFFFFFFF00
00000FFFFFFFFFFFFE00
00003FFFFFFFFFFFFC00
0000FFFFFFFFFFFFF800
0001FFFFFFFFFFFFF000
0003FFFFFFFFFFFFE000
0007FFFFFFFFFFFFC000
000FFFFFFFFFFFFF8000
001FFFFFFFFFFFFF0000
003FFFFFFFFFFFFE0000
007FFFFFF00000000000
007FFFF0000000000000
00FFFF80000000000000
01FFFF00000000000000
01FFFC00000000000000
03FFF800000000000000
03FFF000000000000000
07FFE000000000000000
07FFC000000000000000
0FFFC000000000000000
0FFF8000000000000000
1FFF0000000000000000
1FFF0000000000000000
3FFF0000000000000000
3FFE0000000000000000
3FFE0000000000000000
7FFC0000000000000000
7FFC0000000000000000
7FFC0000000000000000
7FFC000000FFFFFFFF00
FFF8000001FFFFFFFF00
FFF8000003FFFFFFFF00
FFF8000007FFFFFFFF00
FFF800000FFFFFFFFF00
FFF800001FFFFFFFFF00
FFF800003FFFFFFFFF00
FFF800007FFFFFFFFF00
FFF80000FFFFFFFFFF00
FFF80001FFFFFFFFFF00
FFF80003FFFFFFFFFF00
FFF800000000000FFF00
FFF800000000000FFF00
FFFC00000000000FFF00
7FFC00000000000FFF00
7FFC00000000000FFF00
7FFC00000000000FFF00
7FFE00000000000FFF00
3FFE00000000000FFF00
3FFE00000000000FFF00
3FFF00000000000FFF00
1FFF00000000000FFF00
1FFF80000000000FFF00
0FFF80000000000FFF00
0FFFC0000000000FFF00
07FFC0000000000FFF00
07FFE0000000000FFF00
03FFF0000000000FFF00
03FFF8000000000FFF00
01FFFC000000000FFF00
00FFFE000000000FFF00
00FFFF000000000FFF00
007FFFE00000000FFF00
003FFFFFFFFFFFFFFF00
001FFFFFFFFFFFFFFF00
000FFFFFFFFFFFFFFF00
0007FFFFFFFFFFFFFF00
0003FFFFFFFFFFFFFF00
0000FFFFFFFFFFFFFF00
00007FFFFFFFFFFFFF00
00001FFFFFFFFFFFFF00
000007FFFFFFFFFFFF00
000000FFFFFFFFFFFF00
0000003FFFFFFFFFFF00
ENDCHAR
STARTCHAR 0048
ENCODING 72
SWIDTH 760 0
DWIDTH 73 0
BBX 65 79 2 -4
BITMAP
FFF8000000000FFF80
FFF8000000000FFF80
FFF8000000000FFF80
FFF8000000000FFF80
FFF8000000000FFF80
FFF8000000000FFF80
FFF8000000000FFF80
FFF8000000000FFF80
FFF8000000000FFF80
FFF8000000000FFF80
FFF8000000000FFF80
FFF8000000000FFF80
FFF8000000000FFF80
FFF8000000000FFF80
FFF8000000000FFF80
FFF8000000000FFF80
FFF8000000000FFF80
FFF8000000000FFF80
FFF8000000000FFF80
FFF8000000000FFF80
FFF8000000000FFF80
FFF8000000000FFF80
FFF8000000000FFF80
FFF8000000000FFF80
FFF8000000000FFF80
FFF8000000000FFF80
FFF8000000000FFF80
FFF8000000000FFF80
FFF8000000000FFF80
FFF8000000000FFF80
FFF9FFFFFFFFFFFF80
FFF9FFFFFFFFFFFF80
FFF9FFFFFFFFFFFF80
FFF9FFFFFFFFFFFF80
FFF9FFFFFFFFFFFF80
FFF9FFFFFFFFFFFF80
FFF9FFFFFFFFFFFF80
FFF9FFFFFFFFFFFF80
FFF9FFFFFFFFFFFF80
FFF9FFFFFFFFFFFF80
FFF9FFFFFFFFFFFF80
FFF8000000000FFF80
FFF8000000000FFF80
FFF8000000000FFF80
FFF8000000000FFF80
FFF8000000000FFF80
FFF8000000000FFF80
FFF8000000000FFF80
FFF8000000000FFF80
FFF8000000000FFF80
FFF8000000000FFF80
FFF8000000000FFF80
FFF8000000000FFF80
FFF8000000000FFF80
FFF8000000000FFF80
FFF8000000000FFF80
FFF8000000000FFF80
FFF8000000000FFF80
FFF8000000000FFF80
FFF8000000000FFF80
FFF8000000000FFF80
FFF8000000000FFF80
FFF8000000000FFF80
FFF8000000000FFF80
FFF8000000000FFF80
FFF8000000000FFF80
FFF8000000000FFF80
FFF8000000000FFF80
FFF8000000000FFF80
FFF8000000000FFF80
FFF8000000000FFF80
FFF8000000000FFF80
FFF8000000000FFF80
FFF8000000000FFF80
FFF8000000000FFE00
FFF8000000000FE000
FFE0000000000C0000
FE0000000000000000
C00000000000000000
ENDCHAR
STARTCHAR 0049
ENCODING 73
SWIDTH 218 0
DWIDTH 21 0
BBX 12 76 4 -2
BITMAP
FFF0
FFF0
FFF0
FFF0
FFF0
FFF0
FFF0
FFF0
FFF0
FFF0
FFF0
FFF0
FFF0
FFF0
FFF0
FFF0
FFF0
FFF0
FFF0
FFF0
FFF0
FFF0
FFF0
FFF0
FFF0
FFF0
FFF0
FFF0
FFF0
FFF0
FFF0
FFF0
FFF0
FFF0
FFF0
FFF0
FFF0
FFF0
FFF0
FFF0
FFF0
FFF0
FFF0
FFF0
FFF0
FFF0
FFF0
FFF0
FFF0
FFF0
FFF0
FFF0
FFF0
FFF0
FFF0
FFF0
FFF0
FFF0
FFF0
FFF0
FFF0
FFF0
FFF0
FFF0
FFF0
FFF0
FFF0
FFF0
FFF0
FFF0
FFF0
FFF0
FFF0
FFC0
FC00
C000
ENDCHAR
STARTCHAR 004A
ENCODING 74
SWIDTH 583 0
DWIDTH 56 0
BBX 47 74 2 0
BITMAP
000000001FFE
000000001FFE
000000001FFE
000000001FFE
000000001FFE
000000001FFE
000000001FFE
000000001FFE
000000001FFE
000000001FFE
000000001FFE
000000001FFE
000000001FFE
000000001FFE
000000001FFE
000000001FFE
000000001FFE
000000001FFE
000000001FFE
000000001FFE
000000001FFE
000000001FFE
000000001FFE
000000001FFE
000000001FFE
000000001FFE
000000001FFE
000000001FFE
000000001FFE
000000001FFE
000000001FFE
000000001FFE
000000001FFE
000000001FFE
000000001FFE
000000001FFE
000000001FFE
000000001FFE
000000001FFE
000000001FFE
000000001FFE
000000001FFE
000000001FFE
000000001FFE
000000001FFE
008000001FFE
018000001FFE
038000001FFE
078000001FFE
0F8000001FFE
1F8000001FFE
3F8000001FFE
3F8000001FFE
7FC000001FFE
FFC000001FFE
FFE000003FFE
FFE000003FFE
FFF000007FFC
7FF80000FFFC
7FFC0001FFFC
7FFE0003FFF8
3FFF0007FFF8
1FFFE03FFFF0
1FFFFFFFFFE0
0FFFFFFFFFE0
07FFFFFFFFC0
03FFFFFFFF80
01FFFFFFFF00
007FFFFFFC00
003FFFFFF800
000FFFFFF000
0003FFFFC000
0000FFFF0000
00000FF00000
ENDCHAR
STARTCHAR 004B
ENCODING 75
SWIDTH 677 0
DWIDTH 65 0
BBX 60 77 2 -2
BITMAP
FFF8000000FFFF00
FFF8000001FFFE00
FFF8000003FFFC00
FFF8000007FFF000
FFF800000FFFE000
FFF800003FFFC000
FFF800007FFF8000
FFF80000FFFF0000
FFF80001FFFE0000
FFF80003FFFC0000
FFF80007FFF80000
FFF8000FFFF00000
FFF8001FFFE00000
FFF8003FFFC00000
FFF8007FFF800000
FFF800FFFF000000
FFF801FFFE000000
FFF803FFFC000000
FFF807FFF8000000
FFF80FFFF0000000
FFF81FFFE0000000
FFF83FFFC0000000
FFF87FFF80000000
FFF8FFFF00000000
FFF9FFFE00000000
FFFBFFFC00000000
FFFFFFF800000000
FFFFFFE000000000
FFFFFFFE00000000
FFFFFFFFE0000000
FFFFFFFFFC000000
FFFFFFFFFF000000
FFFFFFFFFF800000
FFFFFFFFFFE00000
FFFFFFFFFFF00000
FFFFFFFFFFF80000
FFFFFFFFFFFC0000
FFF800FFFFFE0000
FFF8000FFFFF0000
FFF80003FFFF8000
FFF80000FFFF8000
FFF800007FFFC000
FFF800001FFFE000
FFF800000FFFF000
FFF8000007FFF000
FFF8000003FFF800
FFF8000001FFF800
FFF8000000FFFC00
FFF80000007FFC00
FFF80000003FFE00
FFF80000001FFE00
FFF80000001FFF00
FFF80000000FFF00
FFF800000007FF80
FFF800000007FF80
FFF800000003FF80
FFF800000003FFC0
FFF800000003FFC0
FFF800000001FFC0
FFF800000001FFC0
FFF800000001FFE0
FFF800000000FFE0
FFF800000000FFE0
FFF800000000FFE0
FFF800000000FFE0
FFF800000000FFE0
FFF800000000FFE0
FFF800000000FFE0
FFF800000000FFE0
FFF800000000FFF0
FFF800000000FFE0
FFF800000000FFE0
FFF800000000FFE0
FFF800000000FF80
FFE000000000FE00
FE0000000000F000
E000000000008000
ENDCHAR
STARTCHAR 004C
ENCODING 76
SWIDTH 552 0
DWIDTH 53 0
BBX 45 75 3 0
BITMAP
FFF000000000
FFF000000000
FFF000000000
FFF000000000
FFF000000000
FFF000000000
FFF000000000
FFF000000000
FFF000000000
FFF000000000
FFF000000000
FFF000000000
FFF000000000
FFF000000000
FFF000000000
FFF000000000
FFF000000000
FFF000000000
FFF000000000
FFF000000000
FFF000000000
FFF000000000
FFF000000000
FFF000000000
FFF000000000
FFF000000000
FFF000000000
FFF000000000
FFF000000000
FFF000000000
FFF000000000
FFF000000000
FFF000000000
FFF000000000
FFF000000000
FFF000000000
FFF000000000
FFF000000000
FFF000000000
FFF000000000
FFF000000000
FFF000000000
FFF000000000
FFF000000000
FFF000000000
FFF000000000
FFF000000000
FFF000000000
FFF000000000
FFF000000000
FFF000000000
FFF000000000
FFF000000000
FFF000000000
FFF000000000
FFF000000000
FFF000000000
FFF000000000
FFF000000000
FFF000000000
FFF000000000
FFF000000000
FFF000000008
FFF000000070
FFFFFFFFFFF0
FFFFFFFFFFE0
FFFFFFFFFFC0
FFFFFFFFFF80
FFFFFFFFFF00
FFFFFFFFFE00
FFFFFFFFFC00
FFFFFFFFF800
FFFFFFFFF000
FFFFFFFFE000
FFFFFFFF8000
ENDCHAR
STARTCHAR 004D
ENCODING 77
SWIDTH 1197 0
DWIDTH 115 0
BBX 104 78 3 -4
BITMAP
00000010000000000000000000
00000010000000000004000000
00000018000000000004000000
0000003800000000000E000000
0000003C00000000000E000000
0000003C00000000001E000000
0000007E00000000003F000000
0000007E00000000003F000000
0000007F00000000007F800000
000000FF00000000007F800000
000000FF0000000000FF800000
000001FF8000000000FFC00000
000001FF8000000001FFC00000
000001FFC000000001FFC00000
000003FFC000000003FFE00000
000003FFE000000003FFE00000
000003FFE000000007FFF00000
000007FFF000000007FFF00000
000007FFF00000000FFFF00000
000007FFF80000000FFFF80000
00000FFFF80000001FFFF80000
00000FFFFC0000001FFFF80000
00000FFFFC0000003FFFFC0000
00001FFFFE0000003FFFFC0000
00001FFFFE0000007FFFFC0000
00001FFFFF0000007FFFFE0000
00003FFFFF000000FFFFFE0000
00003FFFFF800000FFFFFF0000
00007FFFFF800001FFFFFF0000
00007FFBFFC00001FFFFFF0000
00007FF3FFC00003FFE7FF8000
0000FFF1FFE00003FFE7FF8000
0000FFF1FFE00007FFC7FF8000
0000FFE0FFF00007FFC3FFC000
0001FFE0FFF0000FFF83FFC000
0001FFE07FF8001FFF81FFC000
0001FFC07FF8001FFF01FFE000
0003FFC03FFC003FFF01FFE000
0003FFC03FFC003FFE00FFF000
0003FF801FFE007FFE00FFF000
0007FF801FFE007FFC00FFF000
0007FF800FFF00FFFC007FF800
0007FF000FFF00FFF8007FF800
000FFF0007FF81FFF8007FF800
000FFF0007FF81FFF0003FFC00
001FFE0007FFC3FFF0003FFC00
001FFE0003FFC3FFE0001FFE00
001FFE0003FFE7FFE0001FFE00
003FFC0001FFE7FFC0001FFE00
003FFC0001FFFFFFC0000FFF00
003FFC0000FFFFFF80000FFF00
007FFC0000FFFFFF80000FFF00
007FF800007FFFFF000007FF80
007FF800007FFFFF000007FF80
00FFF800003FFFFE000007FF80
00FFF000003FFFFE000003FFC0
00FFF000001FFFFC000003FFC0
01FFF000001FFFFC000003FFE0
01FFE000000FFFF8000001FFE0
01FFE000000FFFF8000001FFE0
03FFE0000007FFF0000000FFF0
03FFC0000007FFF0000000FFF0
07FFC0000003FFE0000000FFF0
07FF80000003FFE00000007FF8
07FF80000001FFC00000007FF8
0FFF80000001FFC00000007FFC
0FFF00000000FF800000003FFC
0FFF00000000FF800000003FFC
1FFE000000007F000000003FFE
1FFE000000007F000000001FFE
1FFC000000003E000000001FFE
3FFC000000003E000000000FFF
3FF8000000001C000000000FFF
3FF8000000001C000000000FFF
7FF000000000080000000007FE
7FE000000000080000000007E0
7F000000000000000000000600
E0000000000000000000000000
ENDCHAR
STARTCHAR 004E
ENCODING 78
SWIDTH 739 0
DWIDTH 71 0
BBX 64 77 1 -2
BITMAP
FE00000000000000
FFC0000000001FFF
FFF0000000001FFF
FFFC000000001FFF
FFFE000000001FFF
FFFF800000001FFF
FFFFC00000001FFF
FFFFF00000001FFF
FFFFF80000001FFF
FFFFFC0000001FFF
FFFFFE0000001FFF
FFFFFF8000001FFF
FFFFFFC000001FFF
FFFFFFE000001FFF
FFFFFFF000001FFF
FFFFFFF800001FFF
FFFFFFFC00001FFF
FFFFFFFE00001FFF
FFFFFFFF00001FFF
FFFFFFFF80001FFF
FFF1FFFFC0001FFF
FFF0FFFFE0001FFF
FFF03FFFF0001FFF
FFF01FFFF8001FFF
FFF00FFFFC001FFF
FFF007FFFE001FFF
FFF001FFFF001FFF
FFF000FFFF801FFF
FFF0007FFFC01FFF
FFF0003FFFC01FFF
FFF0001FFFE01FFF
FFF0000FFFF01FFF
FFF00007FFF81FFF
FFF00003FFFC1FFF
FFF00003FFFC1FFF
FFF00001FFFE1FFF
FFF00000FFFF1FFF
FFF000007FFF1FFF
FFF000003FFF9FFF
FFF000001FFFDFFF
FFF000001FFFDFFF
FFF000000FFFFFFF
FFF0000007FFFFFF
FFF0000003FFFFFF
FFF0000003FFFFFF
FFF0000001FFFFFF
FFF0000000FFFFFF
FFF0000000FFFFFF
FFF00000007FFFFF
FFF00000003FFFFF
FFF00000003FFFFF
FFF00000001FFFFF
FFF00000000FFFFF
FFF00000000FFFFF
FFF000000007FFFF
FFF000000007FFFF
FFF000000003FFFF
FFF000000001FFFF
FFF000000001FFFF
FFF000000000FFFF
FFF000000000FFFF
FFF0000000007FFF
FFF0000000003FFF
FFF0000000003FFF
FFF0000000001FFF
FFF0000000001FFF
FFF0000000000FFF
FFF0000000000FFF
FFF0000000000FFF
FFF0000000000FFF
FFF0000000000FFF
FFF0000000000FFF
FFF0000000000FFF
FFF0000000000FFF
FFF0000000001FFF
FE00000000001FC0
C000000000001C00
ENDCHAR
STARTCHAR 004F
ENCODING 79
SWIDTH 1000 0
DWIDTH 96 0
BBX 82 74 5 0
BITMAP
00000007FFFFF000000000
000000FFFFFFFF80000000
000003FFFFFFFFF0000000
00000FFFFFFFFFFC000000
00003FFFFFFFFFFF000000
00007FFFFFFFFFFF800000
0001FFFFFFFFFFFFE00000
0003FFFFFFFFFFFFF00000
0007FFFFFFFFFFFFF80000
000FFFFFFFFFFFFFFC0000
001FFFFFFFFFFFFFFF0000
003FFFFFC0000FFFFF0000
007FFFF8000001FFFF8000
00FFFFC00000007FFFC000
01FFFF000000001FFFE000
01FFFE000000000FFFF000
03FFF80000000007FFF000
07FFF00000000003FFF800
07FFE00000000001FFF800
0FFFC00000000001FFFC00
0FFF800000000000FFFC00
1FFF8000000000007FFE00
1FFF0000000000007FFE00
1FFF0000000000003FFF00
3FFE0000000000003FFF00
3FFE0000000000001FFF00
3FFE0000000000001FFF80
7FFC0000000000001FFF80
7FFC0000000000000FFF80
7FFC0000000000000FFF80
7FFC0000000000000FFF80
FFF80000000000000FFFC0
FFF800000000000007FFC0
FFF800000000000007FFC0
FFF800000000000007FFC0
FFF800000000000007FFC0
FFF800000000000007FFC0
FFF800000000000007FFC0
FFF800000000000007FFC0
FFF800000000000007FFC0
FFF800000000000007FFC0
FFF800000000000007FFC0
FFF800000000000007FFC0
FFFC00000000000007FF80
7FFC0000000000000FFF80
7FFC0000000000000FFF80
7FFC0000000000000FFF80
7FFE0000000000000FFF80
3FFE0000000000001FFF00
3FFF0000000000001FFF00
3FFF0000000000003FFE00
1FFF8000000000003FFE00
1FFF8000000000007FFE00
0FFFC000000000007FFC00
0FFFC00000000000FFFC00
07FFE00000000001FFF800
07FFF00000000003FFF800
03FFF80000000007FFF000
03FFFC000000000FFFE000
01FFFF000000003FFFE000
00FFFF80000000FFFFC000
007FFFE0000007FFFF8000
007FFFFC0000FFFFFF0000
003FFFFFFFFFFFFFFE0000
001FFFFFFFFFFFFFFC0000
000FFFFFFFFFFFFFF80000
0003FFFFFFFFFFFFF00000
0001FFFFFFFFFFFFE00000
0000FFFFFFFFFFFFC00000
00003FFFFFFFFFFF000000
00000FFFFFFFFFFC000000
000003FFFFFFFFF0000000
0000007FFFFFFFC0000000
00000007FFFFF000000000
ENDCHAR
STARTCHAR 0050
ENCODING 80
SWIDTH 645 0
DWIDTH 62 0
BBX 52 78 5 -3
BITMAP
FFFFFFFFF00000
FFFFFFFFFC0000
FFFFFFFFFF0000
FFFFFFFFFF8000
FFFFFFFFFFE000
FFFFFFFFFFF800
FFFFFFFFFFFC00
FFFFFFFFFFFE00
FFFFFFFFFFFF80
FFFFFFFFFFFFC0
FFFFFFFFFFFFC0
FFF8003FFFFFE0
FFF8000FFFFFE0
FFF80007FFFFF0
FFF80001FFFFF0
FFF80000FFFFF0
FFF800007FFFF0
FFF800003FFFF0
FFF800003FFFF0
FFF80000FFFFE0
FFF80003FFFFC0
FFF8000FFFFF80
FFF8003FFFFF00
FFF800FFFFFE00
FFF803FFFFF800
FFF80FFFFFF000
FFF83FFFFFC000
FFF8FFFFFF8000
FFFBFFFFFE0000
FFFBFFFFF80000
FFFBFFFFF00000
FFFBFFFFC00000
FFFBFFFF000000
FFFBFFFC000000
FFFBFFF8000000
FFFBFFE0000000
FFFBFF80000000
FFFBFE00000000
FFFBFC00000000
FFFBF000000000
FFFBC000000000
FFFB0000000000
FFF80000000000
FFF80000000000
FFF80000000000
FFF80000000000
FFF80000000000
FFF80000000000
FFF80000000000
FFF80000000000
FFF80000000000
FFF80000000000
FFF80000000000
FFF80000000000
FFF80000000000
FFF80000000000
FFF80000000000
FFF80000000000
FFF80000000000
FFF80000000000
FFF80000000000
FFF80000000000
FFF80000000000
FFF80000000000
FFF80000000000
FFF80000000000
FFF80000000000
FFF80000000000
FFF80000000000
FFF80000000000
FFF80000000000
FFF80000000000
FFF80000000000
FFF80000000000
FFC00000000000
FE000000000000
F0000000000000
80000000000000
ENDCHAR
STARTCHAR 0051
ENCODING 81
SWIDTH 1020 0
DWIDTH 98 0
BBX 85 76 5 -2
BITMAP
00000007FFFFF800000000
000000FFFFFFFF80000000
000003FFFFFFFFF0000000
00000FFFFFFFFFFC000000
00003FFFFFFFFFFF000000
00007FFFFFFFFFFF800000
0001FFFFFFFFFFFFE00000
0003FFFFFFFFFFFFF00000
0007FFFFFFFFFFFFF80000
000FFFFFFFFFFFFFFC0000
001FFFFFFFFFFFFFFE0000
003FFFFFC0000FFFFF0000
007FFFF8000001FFFF8000
00FFFFC00000007FFFC000
01FFFF000000001FFFE000
01FFFE000000000FFFF000
03FFF80000000007FFF000
07FFF00000000003FFF800
07FFE00000000001FFF800
0FFFC00000000000FFFC00
0FFF800000000000FFFC00
1FFF8000000000007FFE00
1FFF0000000000007FFE00
1FFF0000000000003FFF00
3FFE0000000000003FFF00
3FFE0000000000001FFF00
3FFC0000000000001FFF80
7FFC0000000000001FFF80
7FFC0000000000000FFF80
7FFC0000000000000FFF80
7FFC0000000000000FFF80
FFF80000000000000FFFC0
FFF800000000000007FFC0
FFF800000000000007FFC0
FFF800000000000007FFC0
FFF800000000000007FFC0
FFF800000000000007FFC0
FFF800000000000007FFC0
FFF800000000000007FFC0
FFF800000000000007FFC0
FFF800000000000007FFC0
FFF800000000000007FFC0
FFF800000000000007FFC0
FFFC0000000000000FFF80
7FFC0000000000000FFF80
7FFC000001FFFC000FFF80
7FFC000001FFFE000FFF80
7FFE000000FFFF001FFF80
3FFE0000007FFF801FFF00
3FFF0000003FFFC03FFF00
3FFF0000001FFFE03FFF00
1FFF8000000FFFF07FFE00
1FFF80000007FFF87FFE00
0FFFC0000003FFFCFFFC00
0FFFE0000001FFFFFFFC00
07FFE0000000FFFFFFF800
07FFF0000000FFFFFFF000
03FFF80000007FFFFFF000
03FFFC0000003FFFFFE000
01FFFF0000001FFFFFC000
00FFFF8000000FFFFF8000
007FFFF0000007FFFF8000
003FFFFE000003FFFF0000
001FFFFFFFFFFFFFFF8000
000FFFFFFFFFFFFFFFC000
0007FFFFFFFFFFFFFFE000
0003FFFFFFFFFFFFFFF000
0001FFFFFFFFFFFFFFF800
00007FFFFFFFFFFFFFFC00
00001FFFFFFFFFFFFFFE00
00000FFFFFFFFFFDFFFF00
000003FFFFFFFFF0FFFF80
0000007FFFFFFFC03FFFC0
0000000FFFFFF8001FFFE0
00000000000000000FFFF0
000000000000000007FFF8
ENDCHAR
STARTCHAR 0052
ENCODING 82
SWIDTH 802 0
DWIDTH 77 0
BBX 72 76 2 -1
BITMAP
FFFFFFFFFF00000000
FFFFFFFFFFF0000000
FFFFFFFFFFFC000000
FFFFFFFFFFFF800000
FFFFFFFFFFFFC00000
FFFFFFFFFFFFF00000
FFFFFFFFFFFFF80000
FFFFFFFFFFFFFC0000
FFFFFFFFFFFFFE0000
FFFFFFFFFFFFFE0000
FFFFFFFFFFFFFF0000
FFF800000FFFFF0000
FFF8000001FFFF0000
FFF8000000FFFF0000
FFF80000007FFF0000
FFF80000003FFE0000
FFF80000001FFE0000
FFF80000001FFC0000
FFF80000003FF80000
FFF80000003FF00000
FFF80000007FE00000
FFF8000000FFC00000
FFF8000001FF800000
FFF8000003FF000000
FFF8000007FE000000
FFF800000FFC000000
FFF800001FF8000000
FFF800003FF0000000
FFF800007FE0000000
FFF80000FFF0000000
FFF80001FFFE000000
FFF80003FFFF800000
FFF80007FFFFC00000
FFF8000FFFFFF00000
FFF8001FFFFFF80000
FFF8007FFFFFFE0000
FFF800FFFFFFFF0000
FFF80000FFFFFF8000
FFF800000FFFFFC000
FFF8000003FFFFE000
FFF80000007FFFF000
FFF80000003FFFF800
FFF80000000FFFFC00
FFF800000003FFFE00
FFF800000001FFFF00
FFF800000000FFFF80
FFF8000000003FFF80
FFF8000000001FFFC0
FFF8000000000FFFE0
FFF80000000007FFE0
FFF80000000003FFF0
FFF80000000001FFF0
FFF80000000000FFF8
FFF800000000007FF8
FFF800000000007FFC
FFF800000000003FFC
FFF800000000001FFC
FFF800000000001FFE
FFF800000000000FFE
FFF800000000000FFE
FFF8000000000007FF
FFF8000000000007FF
FFF8000000000007FF
FFF8000000000007FF
FFF8000000000003FF
FFF8000000000003FF
FFF8000000000003FF
FFF8000000000003FF
FFF8000000000003FF
FFF8000000000003FF
FFF8000000000003FF
FFF8000000000003FF
FFF8000000000003FF
FFF8000000000007FC
FF00000000000007C0
E00000000000000600
ENDCHAR
STARTCHAR 0053
ENCODING 83
SWIDTH 906 0
DWIDTH 87 0
BBX 82 74 2 0
BITMAP
0001FFFFFFFFFFFFFFE000
000FFFFFFFFFFFFFFFC000
001FFFFFFFFFFFFFFF8000
003FFFFFFFFFFFFFFF0000
007FFFFFFFFFFFFFFE0000
00FFFFFFFFFFFFFFFC0000
01FFFFFFFFFFFFFFF80000
01FFFFFFFFFFFFFFF00000
03FFFFFFFFFFFFFFE00000
03FFFFFFFFFFFFFFC00000
07FFFFFFFFFFFFFF800000
07FFF80000000000000000
0FFFC00000000000000000
0FFF800000000000000000
0FFF000000000000000000
0FFF000000000000000000
0FFF000000000000000000
0FFF000000000000000000
0FFF800000000000000000
0FFFC00000000000000000
07FFF00000000000000000
07FFFC0000000000000000
03FFFF0000000000000000
03FFFFC000000000000000
01FFFFF800000000000000
00FFFFFF80000000000000
007FFFFFF0000000000000
003FFFFFFE000000000000
000FFFFFFFE00000000000
0007FFFFFFFC0000000000
0001FFFFFFFF8000000000
00007FFFFFFFF000000000
00001FFFFFFFFE00000000
000003FFFFFFFF80000000
0000007FFFFFFFF0000000
00000007FFFFFFFC000000
00000000FFFFFFFF000000
000000001FFFFFFFC00000
0000000003FFFFFFF00000
00000000007FFFFFF80000
000000000007FFFFFE0000
000000000000FFFFFF0000
0000000000001FFFFF8000
00000000000003FFFFC000
00000000000000FFFFE000
000000000000003FFFF000
000000000000000FFFF800
0000000000000007FFFC00
0000000000000001FFFC00
0000000000000000FFFE00
00000000000000007FFE00
00000000000000003FFF00
00000000000000001FFF00
00000000000000000FFF80
00000000000000000FFF80
000000000000000007FF80
000000000000000007FF80
000000000000000007FFC0
000000000000000003FFC0
000000000000000003FFC0
000000000000000003FFC0
000000000000000003FFC0
000000000000000003FFC0
003FFFFFFFFFFFFFFFFFC0
007FFFFFFFFFFFFFFFFFC0
00FFFFFFFFFFFFFFFFFFC0
01FFFFFFFFFFFFFFFFFFC0
03FFFFFFFFFFFFFFFFFFC0
07FFFFFFFFFFFFFFFFFFC0
0FFFFFFFFFFFFFFFFFFFC0
1FFFFFFFFFFFFFFFFFFFC0
3FFFFFFFFFFFFFFFFFFFC0
7FFFFFFFFFFFFFFFFFFFC0
FFFFFFFFFFFFFFFFFFFFC0
ENDCHAR
STARTCHAR 0054
ENCODING 84
SWIDTH 625 0
DWIDTH 60 0
BBX 80 78 -16 -4
BITMAP
001FFFFFFFFFFFFFFFFF
007FFFFFFFFFFFFFFFFE
00FFFFFFFFFFFFFFFFFC
01FFFFFFFFFFFFFFFFF8
03FFFFFFFFFFFFFFFFF0
07FFFFFFFFFFFFFFFFE0
0FFFFFFFFFFFFFFFFFC0
1FFFFFFFFFFFFFFFFF80
3FFFFFFFFFFFFFFFFF00
7FFFFFFFFFFFFFFFFE00
FFFFFFFFFFFFFFFFFC00
00000000FFF000000000
00000000FFF000000000
00000000FFF000000000
00000000FFF000000000
00000000FFF000000000
00000000FFF000000000
00000000FFF000000000
00000000FFF000000000
00000000FFF000000000
00000000FFF000000000
00000000FFF000000000
00000000FFF000000000
00000000FFF000000000
00000000FFF000000000
00000000FFF000000000
00000000FFF000000000
00000000FFF000000000
00000000FFF000000000
00000000FFF000000000
00000000FFF000000000
00000000FFF000000000
00000000FFF000000000
00000000FFF000000000
00000000FFF000000000
00000000FFF000000000
00000000FFF000000000
00000000FFF000000000
00000000FFF000000000
00000000FFF000000000
00000000FFF000000000
00000000FFF000000000
00000000FFF000000000
00000000FFF000000000
00000000FFF000000000
00000000FFF000000000
00000000FFF000000000
00000000FFF000000000
00000000FFF000000000
00000000FFF000000000
00000000FFF000000000
00000000FFF000000000
00000000FFF000000000
00000000FFF000000000
00000000FFF000000000
00000000FFF000000000
00000000FFF000000000
00000000FFF000000000
00000000FFF000000000
00000000FFF000000000
00000000FFF000000000
00000000FFF000000000
00000000FFF000000000
00000000FFF000000000
00000000FFF000000000
00000000FFF000000000
00000000FFF000000000
00000000FFF000000000
00000000FFF000000000
00000000FFF000000000
00000000FFF000000000
00000000FFF000000000
00000000FFF000000000
00000000FFF000000000
00000000FFF000000000
00000000FFC000000000
00000000FC0000000000
00000000C00000000000
ENDCHAR
STARTCHAR 0055
ENCODING 85
SWIDTH 739 0
DWIDTH 71 0
BBX 62 74 3 0
BITMAP
FFF0000000003FFC
FFF0000000003FFC
FFF0000000003FFC
FFF0000000003FFC
FFF0000000003FFC
FFF0000000003FFC
FFF0000000003FFC
FFF0000000003FFC
FFF0000000003FFC
FFF0000000003FFC
FFF0000000003FFC
FFF0000000003FFC
FFF0000000003FFC
FFF0000000003FFC
FFF0000000003FFC
FFF0000000003FFC
FFF0000000003FFC
FFF0000000003FFC
FFF0000000003FFC
FFF0000000003FFC
FFF0000000003FFC
FFF0000000003FFC
FFF0000000003FFC
FFF0000000003FFC
FFF0000000003FFC
FFF0000000003FFC
FFF0000000003FFC
FFF0000000003FFC
FFF0000000003FFC
FFF0000000003FFC
FFF0000000003FFC
FFF0000000003FFC
FFF0000000003FFC
FFF0000000003FFC
FFF0000000003FFC
FFF0000000003FFC
FFF0000000003FFC
FFF0000000003FFC
FFF0000000003FFC
FFF0000000003FFC
FFF0000000003FFC
FFF0000000003FFC
FFF0000000003FFC
FFF0000000003FFC
FFF0000000003FFC
FFF0000000003FFC
FFF0000000003FFC
FFF0000000003FFC
FFF0000000003FFC
FFF0000000003FFC
FFF0000000003FFC
FFF0000000003FFC
FFF0000000003FFC
FFF0000000003FFC
FFF0000000003FFC
FFF0000000003FFC
FFF0000000003FFC
FFF0000000003FFC
FFF0000000003FFC
FFF8000000007FFC
FFFC00000000FFFC
FFFF00000003FFFC
FFFFF000007FFFFC
7FFFFFFFFFFFFFFC
7FFFFFFFFFFFFFF8
3FFFFFFFFFFFFFF0
1FFFFFFFFFFFFFE0
0FFFFFFFFFFFFFC0
07FFFFFFFFFFFF80
01FFFFFFFFFFFE00
007FFFFFFFFFF800
000FFFFFFFFFE000
0001FFFFFFFF8000
000003FFFFF80000
ENDCHAR
STARTCHAR 0056
ENCODING 86
SWIDTH 822 0
DWIDTH 79 0
BBX 74 76 4 -2
BITMAP
FFF800000000000FFFC0
7FFC00000000000FFF80
7FFC00000000001FFF80
3FFE00000000001FFF00
3FFE00000000003FFF00
1FFF00000000003FFE00
1FFF00000000007FFE00
0FFF80000000007FFC00
0FFF8000000000FFFC00
07FFC000000000FFF800
07FFC000000001FFF800
07FFE000000001FFF000
03FFE000000003FFF000
03FFE000000003FFE000
01FFF000000003FFE000
01FFF000000007FFC000
00FFF800000007FFC000
00FFF80000000FFF8000
007FFC0000000FFF8000
007FFC0000001FFF0000
003FFE0000001FFF0000
003FFE0000003FFE0000
001FFF0000003FFE0000
001FFF0000007FFC0000
000FFF0000007FFC0000
000FFF800000FFF80000
0007FF800000FFF80000
0007FFC00001FFF00000
0003FFC00001FFF00000
0003FFE00001FFE00000
0001FFE00003FFE00000
0001FFF00003FFC00000
0000FFF00007FFC00000
0000FFF80007FF800000
00007FF8000FFF800000
00007FFC000FFF000000
00007FFC001FFF000000
00003FFC001FFE000000
00003FFE003FFE000000
00001FFE003FFC000000
00001FFF007FFC000000
00000FFF007FF8000000
00000FFF80FFF8000000
000007FF80FFF0000000
000007FFC1FFF0000000
000003FFC1FFE0000000
000003FFE1FFE0000000
000001FFE3FFC0000000
000001FFE3FFC0000000
000000FFF7FF80000000
000000FFF7FF80000000
0000007FFFFF00000000
0000007FFFFF00000000
0000003FFFFE00000000
0000003FFFFE00000000
0000001FFFFE00000000
0000001FFFFC00000000
0000000FFFFC00000000
0000000FFFF800000000
00000007FFF800000000
00000007FFF000000000
00000007FFF000000000
00000003FFE000000000
00000003FFE000000000
00000001FFC000000000
00000001FFC000000000
00000000FF8000000000
00000000FF8000000000
000000007F0000000000
000000007F0000000000
000000003E0000000000
000000003E0000000000
000000001C0000000000
000000001C0000000000
00000000080000000000
00000000080000000000
ENDCHAR
STARTCHAR 0057
ENCODING 87
SWIDTH 1291 0
DWIDTH 124 0
BBX 121 77 2 -2
BITMAP
FFF0000000000000000000000007FF80
FFF800000000000C00000000000FFF80
7FF800000000000C00000000000FFF00
7FF800000000001E00000000001FFF00
3FFC00000000001E00000000001FFE00
3FFC00000000003F00000000001FFE00
1FFE00000000003F00000000003FFC00
1FFE00000000007F00000000003FFC00
0FFF00000000007F80000000007FF800
0FFF0000000000FF80000000007FF800
07FF8000000000FFC000000000FFF000
07FF8000000001FFC000000000FFF000
03FFC000000001FFE000000001FFE000
03FFC000000003FFE000000001FFE000
01FFE000000003FFF000000003FFE000
01FFE000000007FFF000000003FFC000
00FFF000000007FFF800000007FFC000
00FFF00000000FFFF800000007FF8000
007FF80000000FFFFC0000000FFF8000
007FF80000001FFFFC0000000FFF0000
007FFC0000001FFFFE0000000FFF0000
003FFC0000003FFFFE0000001FFE0000
003FFE0000003FFFFF0000001FFE0000
001FFE0000007FFFFF0000003FFC0000
001FFF0000007FFFFF8000003FFC0000
000FFF000000FFFFFF8000007FF80000
000FFF800000FFF7FFC000007FF80000
0007FF800001FFF3FFC00000FFF00000
0007FFC00001FFE3FFE00000FFF00000
0003FFC00003FFE1FFE00001FFF00000
0003FFE00003FFC1FFE00001FFE00000
0001FFE00007FFC0FFF00003FFE00000
0001FFF00007FF80FFF00003FFC00000
0000FFF0000FFF807FF80007FFC00000
0000FFF8000FFF007FF80007FF800000
00007FF8000FFF003FFC0007FF800000
00007FF8001FFE003FFC000FFF000000
00003FFC001FFE001FFE000FFF000000
00003FFC003FFC001FFE001FFE000000
00001FFE003FFC000FFF001FFE000000
00001FFE007FF8000FFF003FFC000000
00000FFF007FF80007FF803FFC000000
00000FFF00FFF00007FF807FF8000000
000007FF80FFF00003FFC07FF8000000
000007FF81FFE00003FFC0FFF8000000
000003FFC1FFE00003FFE0FFF0000000
000003FFC3FFC00001FFE1FFF0000000
000001FFE3FFC00001FFF1FFE0000000
000001FFE7FF800000FFF3FFE0000000
000000FFF7FF800000FFFBFFC0000000
000000FFFFFF0000007FFBFFC0000000
0000007FFFFF0000007FFFFF80000000
0000007FFFFE0000003FFFFF80000000
0000003FFFFE0000003FFFFF00000000
0000003FFFFE0000001FFFFF00000000
0000003FFFFC0000001FFFFE00000000
0000001FFFFC0000000FFFFE00000000
0000001FFFF80000000FFFFC00000000
0000000FFFF800000007FFFC00000000
0000000FFFF000000007FFFC00000000
00000007FFF000000003FFF800000000
00000007FFE000000003FFF800000000
00000003FFE000000001FFF000000000
00000003FFC000000001FFF000000000
00000001FFC000000000FFE000000000
00000001FF8000000000FFE000000000
00000000FF80000000007FC000000000
00000000FF00000000007FC000000000
000000007F00000000003F8000000000
000000007E00000000003F8000000000
000000003E00000000003F0000000000
000000003C00000000001F0000000000
000000001C00000000001E0000000000
000000001800000000000E0000000000
000000000800000000000E0000000000
00000000000000000000040000000000
00000000000000000000040000000000
ENDCHAR
STARTCHAR 0058
ENCODING 88
SWIDTH 1031 0
DWIDTH 99 0
BBX 91 76 1 -2
BITMAP
3FFFC00000000000001FFF80
1FFFE00000000000007FFF00
0FFFF0000000000000FFFE00
07FFF8000000000001FFFC00
03FFFC000000000003FFF800
01FFFE000000000007FFF000
00FFFF00000000000FFFE000
007FFF80000000001FFFC000
003FFFC0000000003FFF8000
001FFFE0000000007FFF0000
000FFFF000000000FFFE0000
0007FFF800000001FFFC0000
0003FFFC00000003FFF80000
0001FFFE00000007FFF00000
0000FFFF0000000FFFE00000
00007FFF8000001FFFC00000
00003FFFC000003FFF800000
00001FFFE000007FFF000000
00000FFFF00000FFFE000000
000007FFF80001FFFC000000
000007FFFC0003FFF8000000
000003FFFE0007FFF0000000
000001FFFF000FFFE0000000
000000FFFF803FFFC0000000
0000007FFFC07FFF80000000
0000003FFFE0FFFF00000000
0000001FFFF1FFFE00000000
0000000FFFFBFFFC00000000
00000007FFFFFFF800000000
00000003FFFFFFF000000000
00000001FFFFFFE000000000
00000000FFFFFFC000000000
000000007FFFFF8000000000
000000003FFFFF0000000000
000000001FFFFE0000000000
000000000FFFFC0000000000
0000000007FFFC0000000000
0000000007FFFE0000000000
000000000FFFFF0000000000
000000001FFFFF8000000000
000000003FFFFFC000000000
000000007FFFFFE000000000
00000000FFFFFFF000000000
00000001FFFFFFF800000000
00000003FFFDFFFC00000000
00000007FFF8FFFE00000000
0000000FFFF0FFFF00000000
0000001FFFE07FFF80000000
0000003FFFC03FFFE0000000
0000007FFF801FFFF0000000
000000FFFF000FFFF8000000
000001FFFE0007FFFC000000
000003FFFC0003FFFE000000
000003FFF80001FFFF000000
000007FFF00000FFFF800000
00000FFFF000007FFFC00000
00001FFFE000003FFFE00000
00003FFFC000001FFFF00000
00007FFF8000001FFFF80000
0000FFFF0000000FFFFC0000
0001FFFE00000007FFFE0000
0003FFFC00000003FFFF0000
0007FFF800000001FFFF8000
000FFFF000000000FFFFC000
001FFFE0000000007FFFE000
003FFFC0000000003FFFF000
007FFF80000000001FFFF800
00FFFF00000000000FFFFC00
01FFFE000000000007FFFE00
03FFFC000000000003FFFF00
07FFF0000000000003FFFF80
0FFFE0000000000001FFFFC0
1FFFC0000000000000FFFFE0
3FFF000000000000007FFF80
7FFC000000000000003FE000
FE00000000000000001C0000
ENDCHAR
STARTCHAR 0059
ENCODING 89
SWIDTH 875 0
DWIDTH 84 0
BBX 87 76 3 -2
BITMAP
FFFE00000000000000FFFE
7FFF00000000000001FFFC
3FFF80000000000003FFF8
1FFFC0000000000007FFF0
0FFFE000000000000FFFE0
07FFF800000000001FFFC0
03FFFC00000000003FFF80
01FFFE00000000007FFF00
00FFFF0000000000FFFE00
007FFF8000000001FFFC00
003FFFC000000003FFF800
001FFFE000000007FFF000
000FFFF00000000FFFE000
000FFFF80000001FFFC000
0007FFFC0000003FFF8000
0003FFFE0000007FFF0000
0001FFFF000001FFFE0000
0000FFFF800003FFFC0000
00007FFFC00007FFF80000
00003FFFE0000FFFF00000
00001FFFF0001FFFE00000
00000FFFF8003FFFC00000
000007FFFC007FFF800000
000003FFFE00FFFF000000
000001FFFF01FFFE000000
000000FFFF83FFFC000000
0000007FFFC7FFF8000000
0000003FFFEFFFF0000000
0000001FFFFFFFE0000000
0000000FFFFFFFC0000000
00000007FFFFFF80000000
00000003FFFFFF00000000
00000001FFFFFE00000000
00000000FFFFFC00000000
000000007FFFF800000000
000000003FFFF000000000
000000001FFFE000000000
000000000FFFC000000000
0000000007FF8000000000
0000000007FF8000000000
0000000007FFC000000000
0000000007FFC000000000
0000000007FFC000000000
0000000007FFC000000000
0000000007FFC000000000
0000000007FFC000000000
0000000007FFC000000000
0000000007FFC000000000
0000000007FFC000000000
0000000007FFC000000000
0000000007FFC000000000
0000000007FFC000000000
0000000007FFC000000000
0000000007FFC000000000
0000000007FFC000000000
0000000007FFC000000000
0000000007FFC000000000
0000000007FFC000000000
0000000007FFC000000000
0000000007FFC000000000
0000000007FFC000000000
0000000007FFC000000000
0000000007FFC000000000
0000000007FFC000000000
0000000007FFC000000000
0000000007FFC000000000
0000000007FFC000000000
0000000007FFC000000000
0000000007FFC000000000
0000000007FFC000000000
0000000007FFC000000000
0000000007FFC000000000
0000000007FFC000000000
0000000007FFC000000000
0000000007F80000000000
0000000007000000000000
ENDCHAR
STARTCHAR 005A
ENCODING 90
SWIDTH 895 0
DWIDTH 86 0
BBX 79 74 2 2
BITMAP
0000FFFFFFFFFFFFFC00
0001FFFFFFFFFFFFFC00
0007FFFFFFFFFFFFF800
000FFFFFFFFFFFFFF000
000FFFFFFFFFFFFFE000
001FFFFFFFFFFFFFE000
003FFFFFFFFFFFFFC000
007FFFFFFFFFFFFF8000
00FFFFFFFFFFFFFF0000
01FFFFFFFFFFFFFF0000
03FFFFFFFFFFFFFE0000
060000000000FFFC0000
000000000001FFF80000
000000000001FFF00000
000000000003FFF00000
000000000007FFE00000
00000000000FFFC00000
00000000001FFF800000
00000000001FFF800000
00000000003FFF000000
00000000007FFE000000
0000000000FFFC000000
0000000000FFFC000000
0000000001FFF8000000
0000000003FFF0000000
0000000007FFE0000000
0000000007FFC0000000
000000000FFFC0000000
000000001FFF80000000
000000003FFF00000000
000000007FFE00000000
000000007FFE00000000
00000000FFFC00000000
00000001FFF800000000
00000003FFF000000000
00000003FFF000000000
00000007FFE000000000
0000000FFFC000000000
0000001FFF8000000000
0000001FFF0000000000
0000003FFF0000000000
0000007FFE0000000000
000000FFFC0000000000
000001FFF80000000000
000001FFF80000000000
000003FFF00000000000
000007FFE00000000000
00000FFFC00000000000
00000FFFC00000000000
00001FFF800000000000
00003FFF000000000000
00007FFE000000000000
00007FFC000000000000
0000FFFC000000000000
0001FFF8000000000000
0003FFF0000000000000
0007FFE0000000000000
0007FFE0000000000000
000FFFC0000000000000
001FFF80000000000000
003FFF00000000000000
003FFF00000000000006
007FFE0000000000007C
00FFFFFFFFFFFFFFFFF8
01FFFFFFFFFFFFFFFFF0
01FFFFFFFFFFFFFFFFE0
03FFFFFFFFFFFFFFFFC0
07FFFFFFFFFFFFFFFF80
0FFFFFFFFFFFFFFFFF00
1FFFFFFFFFFFFFFFFE00
1FFFFFFFFFFFFFFFFC00
3FFFFFFFFFFFFFFFF800
7FFFFFFFFFFFFFFFF000
FFFFFFFFFFFFFFFFE000
ENDCHAR
STARTCHAR 005B
ENCODING 91
SWIDTH 291 0
DWIDTH 28 0
BBX 20 79 5 -2
BITMAP
FFFFF0
FFFFF0
FFFFF0
FFFFF0
FFFFF0
FFFFF0
FFFFF0
FFFFF0
FFFFF0
FFFFF0
FFFFF0
FFF000
FFF000
FFF000
FFF000
FFF000
FFF000
FFF000
FFF000
FFF000
FFF000
FFF000
FFF000
FFF000
FFF000
FFF000
FFF000
FFF000
FFF000
FFF000
FFF000
FFF000
FFF000
FFF000
FFF000
FFF000
FFF000
FFF000
FFF000
FFF000
FFF000
FFF000
FFF000
FFF000
FFF000
FFF000
FFF000
FFF000
FFF000
FFF000
FFF000
FFF000
FFF000
FFF000
FFF000
FFF000
FFF000
FFF000
FFF000
FFF000
FFF000
FFF000
FFF000
FFF000
FFF000
FFF000
FFF000
FFF000
FFFFF0
FFFFF0
FFFFF0
FFFFF0
FFFFF0
FFFFF0
FFFFF0
FFFFF0
FFFFF0
FFFFF0
FFFFF0
ENDCHAR
STARTCHAR 005C
ENCODING 92
SWIDTH 625 0
DWIDTH 60 0
BBX 47 74 5 0
BITMAP
FFFFE0000000
7FFFE0000000
7FFF80000000
3FFE00000000
3FFE00000000
1FFE00000000
1FFE00000000
0FFF00000000
0FFF00000000
0FFF80000000
07FF80000000
07FFC0000000
03FFC0000000
03FFE0000000
01FFE0000000
01FFE0000000
00FFF0000000
00FFF0000000
007FF8000000
007FF8000000
003FFC000000
003FFC000000
001FFE000000
001FFE000000
000FFF000000
000FFF000000
0007FF800000
0007FF800000
0007FFC00000
0003FFC00000
0003FFE00000
0001FFE00000
0001FFF00000
0000FFF00000
0000FFF00000
00007FF80000
00007FF80000
00003FFC0000
00003FFC0000
00001FFE0000
00001FFE0000
00000FFF0000
00000FFF0000
000007FF8000
000007FF8000
000003FFC000
000003FFC000
000003FFE000
000001FFE000
000001FFF000
000000FFF000
000000FFF800
0000007FF800
0000007FF800
0000003FFC00
0000003FFC00
0000001FFE00
0000001FFE00
0000000FFF00
0000000FFF00
00000007FF80
00000007FF80
00000003FFC0
00000003FFC0
00000003FFE0
00000001FFE0
00000001FFF0
00000000FFF0
00000000FFF8
000000007FF8
00000000FFFC
00000003FFFC
0000000FFFFC
0000000FFFFE
ENDCHAR
STARTCHAR 005D
ENCODING 93
SWIDTH 322 0
DWIDTH 31 0
BBX 21 79 4 -2
BITMAP
FFFFF8
FFFFF8
FFFFF8
FFFFF8
FFFFF8
FFFFF8
FFFFF8
FFFFF8
FFFFF8
FFFFF8
FFFFF8
007FF8
007FF8
007FF8
007FF8
007FF8
007FF8
007FF8
007FF8
007FF8
007FF8
007FF8
007FF8
007FF8
007FF8
007FF8
007FF8
007FF8
007FF8
007FF8
007FF8
007FF8
007FF8
007FF8
007FF8
007FF8
007FF8
007FF8
007FF8
007FF8
007FF8
007FF8
007FF8
007FF8
007FF8
007FF8
007FF8
007FF8
007FF8
007FF8
007FF8
007FF8
007FF8
007FF8
007FF8
007FF8
007FF8
007FF8
007FF8
007FF8
007FF8
007FF8
007FF8
007FF8
007FF8
007FF8
007FF8
007FF8
FFFFF8
FFFFF8
FFFFF8
FFFFF8
FFFFF8
FFFFF8
FFFFF8
FFFFF8
FFFFF8
FFFFF8
FFFFF8
ENDCHAR
STARTCHAR 005E
ENCODING 94
SWIDTH 593 0
DWIDTH 57 0
BBX 43 23 4 51
BITMAP
000004000000
00000E000000
00001F000000
00003F800000
00007FC00000
0000FFE00000
0001FFF00000
0003FFF80000
0003FFFC0000
0007FFFE0000
000FFFFF0000
001FFFFF8000
003FFFFFC000
007FF9FFE000
00FFF0FFF000
01FFE07FF800
03FFC07FFC00
07FF803FFE00
0FFF001FFF00
1FFE000FFF80
3FFC0007FFC0
7FF80003FFE0
FFE00000FFC0
ENDCHAR
STARTCHAR 005F
ENCODING 95
SWIDTH 635 0
DWIDTH 61 0
BBX 58 11 7 -22
BITMAP
FFFFFFFFFFFFFFC0
FFFFFFFFFFFFFFC0
FFFFFFFFFFFFFFC0
FFFFFFFFFFFFFFC0
FFFFFFFFFFFFFFC0
FFFFFFFFFFFFFFC0
FFFFFFFFFFFFFFC0
FFFFFFFFFFFFFFC0
FFFFFFFFFFFFFFC0
FFFFFFFFFFFFFFC0
FFFFFFFFFFFFFFC0
ENDCHAR
STARTCHAR 0060
ENCODING 96
SWIDTH 302 0
DWIDTH 29 0
BBX 0 0 0 0
BITMAP
ENDCHAR
STARTCHAR 0061
ENCODING 97
SWIDTH 677 0
DWIDTH 65 0
BBX 72 61 -5 -2
BITMAP
000000000C00000000
000000001C00000000
000000001E00000000
000000003F00000000
000000003F00000000
000000007F80000000
00000000FF80000000
00000000FFC0000000
00000001FFE0000000
00000001FFE0000000
00000003FFF0000000
00000007FFF8000000
00000007FFF8000000
0000000FFFFC000000
0000000FFFFC000000
0000001FFFFE000000
0000001FFFFF000000
0000003FF3FF000000
0000007FF3FF800000
0000007FE1FF800000
000000FFE0FFC00000
000000FFC0FFE00000
000001FF807FE00000
000003FF803FF00000
000003FF003FF00000
000007FFFFFFF80000
000007FFFFFFFC0000
00000FFFFFFFFC0000
00001FFFFFFFFE0000
00001FFBFFFFFE0000
00003FFFFFFFFF0000
00003FFFFFFFFF8000
00007FFFFFFFFF8000
0000FFFFFFFFFFC000
0000FFFFFFFFFFC000
0001FFC000007FE000
0001FFC000007FF000
0003FF8000003FF000
0007FF0000003FF800
0007FF0000001FF800
000FFE0000000FFC00
000FFE0000000FFE00
001FFC00000007FE00
003FFC00000007FF00
003FF800000003FF00
007FF000000001FF80
007FF000000001FFC0
00FFE000000000FFC0
01FFC000000000FFE0
01FFC0000000007FE0
03FF80000000003FF0
03FF00000000003FF8
07FF00000000001FF8
0FFE00000000001FFC
0FFC00000000000FFC
1FF8000000000007FE
1FF8000000000007FF
3FF0000000000003FF
7FE0000000000003FF
7F80000000000001E0
E00000000000000000
ENDCHAR
STARTCHAR 0062
ENCODING 98
SWIDTH 572 0
DWIDTH 55 0
BBX 47 60 1 0
BITMAP
FFFFFFF80000
FFFFFFFF0000
FFFFFFFFC000
FFFFFFFFF000
FFFFFFFFFC00
FFFFFFFFFE00
FFFFFFFFFF00
FFFFFFFFFF80
FFFFFFFFFF80
FFFFFFFFFFC0
FF80001FFFC0
FF800007FFC0
FF800003FFC0
FF800001FF80
FF800001FF00
FF800003FF00
FF800007FE00
FF80000FFC00
FF80001FF800
FF80003FF000
FF80007FC000
FF8000FF8000
FF8001FF0000
FF8001FE0000
FF8003FFE000
FF8007FFFC00
FF800FFFFF00
FF801FFFFF80
FF803FFFFFC0
FF807FFFFFE0
FF800001FFF0
FF8000007FF8
FF8000001FF8
FF8000001FFC
FF8000000FFC
FF80000007FC
FF80000007FE
FF80000007FE
FF80000003FE
FF80000003FE
FF80000003FE
FF80000003FE
FF80000003FE
FF80000003FE
FF80000007FE
FF80000007FC
FF8000000FFC
FF8000001FFC
FF8000007FF8
FF800000FFF8
FFFFFFFFFFF0
FFFFFFFFFFE0
FFFFFFFFFFE0
FFFFFFFFFFC0
FFFFFFFFFF80
FFFFFFFFFF00
FFFFFFFFFE00
FFFFFFFFFC00
FFFFFFFFF000
FFFFFFFF8000
ENDCHAR
STARTCHAR 0063
ENCODING 99
SWIDTH 666 0
DWIDTH 64 0
BBX 62 59 2 1
BITMAP
00007FFFFFFFFFFC
0003FFFFFFFFFFF8
000FFFFFFFFFFFE0
001FFFFFFFFFFFC0
003FFFFFFFFFFF80
007FFFFFFFFFFF00
00FFFFFFFFFFFE00
01FFFFFFFFFFFC00
03FFFFFFFFFFF000
03FFF80000000000
07FFC00000000000
07FF800000000000
0FFF000000000000
1FFE000000000000
1FFC000000000000
1FFC000000000000
3FF8000000000000
3FF8000000000000
7FF0000000000000
7FF0000000000000
7FE0000000000000
FFE0000000000000
FFE0000000000000
FFC0000000000000
FFC0000000000000
FFC0000000000000
FFC0000000000000
FFC0000000000000
FFC0000000000000
FFC0000000000000
FFC0000000000000
FFC0000000000000
FFC0000000000000
FFC0000000000000
FFC0000000000000
FFC0000000000000
FFE0000000000000
FFE0000000000000
FFF0000000000000
FFF0000000000000
FFF0000000000000
7FF8000000000000
7FFC000000000000
3FFC000000000000
3FFE000000000000
1FFF000000000000
0FFF800000000000
0FFFC00000000000
07FFF80000000000
03FFFFFFFFFFFFFC
01FFFFFFFFFFFFF8
01FFFFFFFFFFFFF0
00FFFFFFFFFFFFE0
007FFFFFFFFFFFC0
003FFFFFFFFFFF80
000FFFFFFFFFFF00
0007FFFFFFFFFE00
0001FFFFFFFFFC00
00007FFFFFFFFC00
ENDCHAR
STARTCHAR 0064
ENCODING 100
SWIDTH 729 0
DWIDTH 70 0
BBX 60 60 1 0
BITMAP
FFFFFFFFFF000000
FFFFFFFFFFE00000
FFFFFFFFFFF80000
FFFFFFFFFFFC0000
FFFFFFFFFFFF0000
FFFFFFFFFFFF8000
FFFFFFFFFFFFC000
FFFFFFFFFFFFE000
FFFFFFFFFFFFF000
FFFFFFFFFFFFF800
FF80000003FFF800
FF80000000FFFC00
FF800000003FFE00
FF800000001FFE00
FF800000000FFF00
FF8000000007FF00
FF8000000003FF80
FF8000000001FF80
FF8000000001FFC0
FF8000000000FFC0
FF8000000000FFC0
FF80000000007FE0
FF80000000007FE0
FF80000000003FE0
FF80000000003FE0
FF80000000003FF0
FF80000000001FF0
FF80000000001FF0
FF80000000001FF0
FF80000000001FF0
FF80000000001FF0
FF80000000001FF0
FF80000000001FF0
FF80000000001FF0
FF80000000003FF0
FF80000000003FE0
FF80000000003FE0
FF80000000007FE0
FF80000000007FE0
FF8000000000FFC0
FF8000000000FFC0
FF8000000001FFC0
FF8000000001FF80
FF8000000003FF80
FF8000000007FF00
FF800000000FFF00
FF800000001FFE00
FF800000007FFE00
FF80000000FFFC00
FF80000007FFF800
FFFFFFFFFFFFF800
FFFFFFFFFFFFF000
FFFFFFFFFFFFE000
FFFFFFFFFFFFC000
FFFFFFFFFFFF8000
FFFFFFFFFFFF0000
FFFFFFFFFFFE0000
FFFFFFFFFFF80000
FFFFFFFFFFE00000
FFFFFFFFFF000000
ENDCHAR
STARTCHAR 0065
ENCODING 101
SWIDTH 656 0
DWIDTH 63 0
BBX 63 59 1 0
BITMAP
00003FFFFFFFFFFC
0001FFFFFFFFFFF8
0007FFFFFFFFFFF0
001FFFFFFFFFFFE0
003FFFFFFFFFFFC0
007FFFFFFFFFFF80
00FFFFFFFFFFFF00
01FFFFFFFFFFFE00
03FFFFFFFFFFFC00
03FFFE0000000000
07FFF80000000000
07FFE00000000000
0FFFC00000000000
0FFF800000000000
1FFF000000000000
1FFE000000000000
3FFC000000000000
3FF8000000000000
3FF8000000000000
7FF0000000000000
7FF0000000000000
7FE0000000000000
7FE0000000000000
7FE0000000000000
FFFFFFFFFFFFFE00
FFFFFFFFFFFFFC00
FFFFFFFFFFFFF800
FFFFFFFFFFFFF800
FFFFFFFFFFFFF000
FFFFFFFFFFFFE000
FFFFFFFFFFFFC000
FFFFFFFFFFFF8000
FFFFFFFFFFFF0000
7FFFFFFFFFFE0000
7FFFFFFFFFFC0000
7FC0000000000000
7FE0000000000000
7FE0000000000000
3FE0000000000000
3FF0000000000000
3FF8000000000000
1FF8000000000000
1FFC000000000000
1FFE000000000000
0FFF000000000000
0FFF800000000000
07FFC00000000000
07FFF00000000000
03FFFC0000000006
03FFFFFFFFFFFFFC
01FFFFFFFFFFFFF8
00FFFFFFFFFFFFF8
007FFFFFFFFFFFF0
007FFFFFFFFFFFE0
003FFFFFFFFFFFC0
000FFFFFFFFFFF80
0007FFFFFFFFFF00
0001FFFFFFFFFE00
00003FFFFFFFFC00
ENDCHAR
STARTCHAR 0066
ENCODING 102
SWIDTH 479 0
DWIDTH 46 0
BBX 49 61 0 -2
BITMAP
FFFFFFFFFFFF80
FFFFFFFFFFFF00
FFFFFFFFFFFE00
FFFFFFFFFFFC00
FFFFFFFFFFF800
FFFFFFFFFFF000
FFFFFFFFFFE000
FFFFFFFFFFC000
FFFFFFFFFF8000
FF800000000000
FF800000000000
FF800000000000
FF800000000000
FF800000000000
FF800000000000
FF800000000000
FF800000000000
FF800000000000
FF800000000000
FF800000000000
FF800000000000
FF800000000000
FF800000000000
FFFFFFFFF80000
FFFFFFFFF00000
FFFFFFFFE00000
FFFFFFFFC00000
FFFFFFFF800000
FFFFFFFF000000
FFFFFFFE000000
FFFFFFFC000000
FFFFFFF8000000
FF800000000000
FF800000000000
FF800000000000
FF800000000000
FF800000000000
FF800000000000
FF800000000000
FF800000000000
FF800000000000
FF800000000000
FF800000000000
FF800000000000
FF800000000000
FF800000000000
FF800000000000
FF800000000000
FF800000000000
FF800000000000
FF800000000000
FF800000000000
FF800000000000
FF800000000000
FF800000000000
FF800000000000
FF800000000000
FF800000000000
FF000000000000
F8000000000000
C0000000000000
ENDCHAR
STARTCHAR 0067
ENCODING 103
SWIDTH 666 0
DWIDTH 64 0
BBX 59 59 1 0
BITMAP
00000FFFFFFFFFE0
00007FFFFFFFFFC0
0001FFFFFFFFFF80
0007FFFFFFFFFF00
000FFFFFFFFFFC00
001FFFFFFFFFF800
003FFFFFFFFFF000
007FFFFFFFFFE000
00FFFFFFFFFFC000
01FFFF0000000000
01FFF80000000000
03FFE00000000000
07FF800000000000
07FF000000000000
0FFE000000000000
0FFC000000000000
1FFC000000000000
1FF8000000000000
3FF8000000000000
3FF0000000000000
3FF0000000000000
7FE0000000000000
7FE0000000000000
7FE00000FFFFFFC0
FFC00001FFFFFFC0
FFC00003FFFFFFC0
FFC00003FFFFFFC0
FFC00007FFFFFFC0
FFC0000FFFFFFFC0
FFC0001FFFFFFFC0
FFC0003FFFFFFFC0
FFC0007FFFFFFFC0
FFC000FFFFFFFFC0
FFC0000000007FC0
FFE0000000007FC0
7FE0000000007FC0
7FE0000000007FC0
7FE0000000007FC0
7FF0000000007FC0
3FF0000000007FC0
3FF8000000007FC0
3FF8000000007FC0
1FFC000000007FC0
1FFC000000007FC0
0FFE000000007FC0
0FFF000000007FC0
07FF000000007FC0
03FF800000007FC0
03FFE00000007FC0
01FFF80000007FC0
00FFFFFFFFFFFFC0
007FFFFFFFFFFFC0
003FFFFFFFFFFFC0
001FFFFFFFFFFFC0
000FFFFFFFFFFFC0
0003FFFFFFFFFFC0
0000FFFFFFFFFFC0
00003FFFFFFFFFC0
000007FFFFFFFFC0
ENDCHAR
STARTCHAR 0068
ENCODING 104
SWIDTH 625 0
DWIDTH 60 0
BBX 52 62 2 -3
BITMAP
FFC00000003FF0
FFC00000003FF0
FFC00000003FF0
FFC00000003FF0
FFC00000003FF0
FFC00000003FF0
FFC00000003FF0
FFC00000003FF0
FFC00000003FF0
FFC00000003FF0
FFC00000003FF0
FFC00000003FF0
FFC00000003FF0
FFC00000003FF0
FFC00000003FF0
FFC00000003FF0
FFC00000003FF0
FFC00000003FF0
FFC00000003FF0
FFC00000003FF0
FFC00000003FF0
FFC00000003FF0
FFC00000003FF0
FFCFFFFFFFFFF0
FFCFFFFFFFFFF0
FFCFFFFFFFFFF0
FFCFFFFFFFFFF0
FFCFFFFFFFFFF0
FFCFFFFFFFFFF0
FFCFFFFFFFFFF0
FFCFFFFFFFFFF0
FFCFFFFFFFFFF0
FFCFFFFFFFFFF0
FFC00000003FF0
FFC00000003FF0
FFC00000003FF0
FFC00000003FF0
FFC00000003FF0
FFC00000003FF0
FFC00000003FF0
FFC00000003FF0
FFC00000003FF0
FFC00000003FF0
FFC00000003FF0
FFC00000003FF0
FFC00000003FF0
FFC00000003FF0
FFC00000003FF0
FFC00000003FF0
FFC00000003FF0
FFC00000003FF0
FFC00000003FF0
FFC00000003FF0
FFC00000003FF0
FFC00000003FF0
FFC00000003FF0
FFC00000003FF0
FFC00000003FF0
FFC00000003FF0
FFC00000003F80
FC000000003000
C0000000000000
ENDCHAR
STARTCHAR 0069
ENCODING 105
SWIDTH 187 0
DWIDTH 18 0
BBX 9 61 3 -2
BITMAP
FF80
FF80
FF80
FF80
FF80
FF80
FF80
FF80
FF80
FF80
FF80
FF80
FF80
FF80
FF80
FF80
FF80
FF80
FF80
FF80
FF80
FF80
FF80
FF80
FF80
FF80
FF80
FF80
FF80
FF80
FF80
FF80
FF80
FF80
FF80
FF80
FF80
FF80
FF80
FF80
FF80
FF80
FF80
FF80
FF80
FF80
FF80
FF80
FF80
FF80
FF80
FF80
FF80
FF80
FF80
FF80
FF80
FF80
FF80
FC00
C000
ENDCHAR
STARTCHAR 006A
ENCODING 106
SWIDTH 479 0
DWIDTH 46 0
BBX 38 59 2 0
BITMAP
00000007FC
00000007FC
00000007FC
00000007FC
00000007FC
00000007FC
00000007FC
00000007FC
00000007FC
00000007FC
00000007FC
00000007FC
00000007FC
00000007FC
00000007FC
00000007FC
00000007FC
00000007FC
00000007FC
00000007FC
00000007FC
00000007FC
00000007FC
00000007FC
00000007FC
00000007FC
00000007FC
00000007FC
00000007FC
00000007FC
00000007FC
00000007FC
00000007FC
00000007FC
00000007FC
00000007FC
00000007FC
02000007FC
06000007FC
0E000007FC
1F000007FC
3F000007FC
7F000007FC
FF80000FFC
FF80000FFC
FFC0001FFC
FFE0003FF8
7FF800FFF8
7FFE03FFF0
3FFFFFFFF0
1FFFFFFFE0
1FFFFFFFC0
07FFFFFFC0
03FFFFFF00
01FFFFFE00
007FFFFC00
003FFFF000
000FFFC000
0001FE0000
ENDCHAR
STARTCHAR 006B
ENCODING 107
SWIDTH 541 0
DWIDTH 52 0
BBX 47 62 2 -2
BITMAP
FF800001FFF0
FF800003FFE0
FF800007FFC0
FF80000FFF80
FF80001FFF00
FF80003FFE00
FF80007FFC00
FF8000FFF800
FF8001FFF000
FF8003FFE000
FF8007FFC000
FF801FFF8000
FF803FFF0000
FF807FFE0000
FF80FFF80000
FF81FFF00000
FF83FFE00000
FF87FFC00000
FF8FFF800000
FF9FFF000000
FFBFFE000000
FFFFFC000000
FFFFFC000000
FFFFFFF00000
FFFFFFFC0000
FFFFFFFF0000
FFFFFFFF8000
FFFFFFFFC000
FFFFFFFFF000
FF83FFFFF800
FF800FFFF800
FF8001FFFC00
FF80007FFE00
FF80003FFF00
FF80000FFF00
FF800007FF80
FF800003FFC0
FF800001FFC0
FF800000FFE0
FF8000007FE0
FF8000007FF0
FF8000003FF0
FF8000001FF8
FF8000001FF8
FF8000000FF8
FF8000000FFC
FF8000000FFC
FF80000007FC
FF80000007FC
FF80000007FC
FF80000003FE
FF80000003FE
FF80000003FE
FF80000003FE
FF80000003FE
FF80000003FE
FF80000003FE
FF80000003FE
FF80000003FE
FF80000003F0
FC00000003C0
C00000000200
ENDCHAR
STARTCHAR 006C
ENCODING 108
SWIDTH 385 0
DWIDTH 37 0
BBX 35 59 2 0
BITMAP
FF80000000
FF80000000
FF80000000
FF80000000
FF80000000
FF80000000
FF80000000
FF80000000
FF80000000
FF80000000
FF80000000
FF80000000
FF80000000
FF80000000
FF80000000
FF80000000
FF80000000
FF80000000
FF80000000
FF80000000
FF80000000
FF80000000
FF80000000
FF80000000
FF80000000
FF80000000
FF80000000
FF80000000
FF80000000
FF80000000
FF80000000
FF80000000
FF80000000
FF80000000
FF80000000
FF80000000
FF80000000
FF80000000
FF80000000
FF80000000
FF80000000
FF80000000
FF80000000
FF80000000
FF80000000
FF80000000
FF80000000
FF80000000
FF80000000
FFFFFFFFE0
FFFFFFFFC0
FFFFFFFFC0
FFFFFFFF80
FFFFFFFF00
FFFFFFFE00
FFFFFFFC00
FFFFFFF800
FFFFFFF000
FFFFFFC000
ENDCHAR
STARTCHAR 006D
ENCODING 109
SWIDTH 885 0
DWIDTH 85 0
BBX 83 62 2 -2
BITMAP
0000000000000004000000
0000060000000004000000
000006000000000E000000
00000F000000000E000000
00000F000000001E000000
00000F000000001F000000
00001F800000003F000000
00001F800000003F000000
00001FC00000007F800000
00003FC0000000FF800000
00003FE0000000FFC00000
00003FE0000001FFC00000
00007FF0000001FFC00000
00007FF0000003FFE00000
00007FF8000003FFE00000
0000FFF8000007FFE00000
0000FFFC000007FFF00000
0001FFFC00000FFFF00000
0001FFFE00000FFFF00000
0001FFFE00001FFFF80000
0003FFFF00001FFFF80000
0003FFFF00003FFFFC0000
0003FFFF80003FFFFC0000
0007FFFF80007FF7FC0000
0007FCFFC0007FF7FE0000
0007FCFFC000FFE7FE0000
000FFC7FE000FFE3FE0000
000FF87FE001FFC3FF0000
000FF83FF001FFC1FF0000
001FF83FF003FF81FF8000
001FF01FF803FF81FF8000
003FF01FF807FF00FF8000
003FF00FFC07FF00FFC000
003FE00FFC0FFE00FFC000
007FE007FE0FFE007FC000
007FE007FE1FFC007FE000
007FC003FF1FFC007FE000
00FFC003FF3FF8003FF000
00FFC001FFBFF8003FF000
00FF8001FFFFF0001FF000
01FF8000FFFFF0001FF800
01FF8000FFFFE0001FF800
01FF00007FFFE0000FF800
03FF00007FFFC0000FFC00
03FF00003FFFC0000FFC00
07FE00003FFF800007FC00
07FE00001FFF800007FE00
07FE00001FFF000003FE00
0FFC00000FFF000003FF00
0FFC00000FFE000003FF00
0FF8000007FE000001FF00
1FF8000007FC000001FF80
1FF8000003FC000001FF80
1FF0000003F8000000FF80
3FF0000001F8000000FFC0
3FE0000001F0000000FFC0
3FE0000001F00000007FE0
7FC0000000E00000007FE0
7FC0000000E00000003FE0
FF80000000400000003F00
FE00000000400000003000
C000000000000000000000
ENDCHAR
STARTCHAR 006E
ENCODING 110
SWIDTH 604 0
DWIDTH 58 0
BBX 51 63 1 -2
BITMAP
FC000000000000
FF000000000000
FFC00000007FE0
FFF00000007FE0
FFF80000007FE0
FFFE0000007FE0
FFFF0000007FE0
FFFF8000007FE0
FFFFE000007FE0
FFFFF000007FE0
FFFFF800007FE0
FFFFFC00007FE0
FFFFFE00007FE0
FFFFFF00007FE0
FFFFFF80007FE0
FFFFFFC0007FE0
FFFFFFE0007FE0
FF9FFFF0007FE0
FF87FFF8007FE0
FF83FFFC007FE0
FF81FFFE007FE0
FF807FFF007FE0
FF803FFF807FE0
FF801FFF807FE0
FF800FFFC07FE0
FF8007FFE07FE0
FF8003FFF07FE0
FF8001FFF87FE0
FF8000FFF87FE0
FF8000FFFC7FE0
FF80007FFE7FE0
FF80003FFE7FE0
FF80001FFF7FE0
FF80000FFF7FE0
FF80000FFFFFE0
FF800007FFFFE0
FF800003FFFFE0
FF800001FFFFE0
FF800001FFFFE0
FF800000FFFFE0
FF8000007FFFE0
FF8000007FFFE0
FF8000003FFFE0
FF8000003FFFE0
FF8000001FFFE0
FF8000000FFFE0
FF8000000FFFE0
FF80000007FFE0
FF80000007FFE0
FF80000003FFE0
FF80000001FFE0
FF80000001FFE0
FF80000000FFE0
FF80000000FFE0
FF800000007FE0
FF800000007FE0
FF800000007FE0
FF800000007FE0
FF800000007FE0
FF800000007FE0
FF800000007FE0
FE000000007F00
C0000000006000
ENDCHAR
STARTCHAR 006F
ENCODING 111
SWIDTH 812 0
DWIDTH 78 0
BBX 66 59 4 0
BITMAP
000003FFFFE0000000
00001FFFFFFE000000
00007FFFFFFF800000
0001FFFFFFFFE00000
0007FFFFFFFFF80000
000FFFFFFFFFFC0000
001FFFFFFFFFFE0000
007FFFFFFFFFFF8000
00FFFFFFFFFFFFC000
00FFFFFFFFFFFFE000
01FFFFC0003FFFE000
03FFFC000007FFF000
07FFF0000001FFF800
07FFC00000007FFC00
0FFF000000003FFC00
0FFE000000001FFE00
1FFC000000000FFE00
1FF8000000000FFF00
3FF80000000007FF00
3FF00000000007FF00
7FF00000000003FF80
7FE00000000003FF80
7FE00000000001FF80
7FE00000000001FF80
FFC00000000001FFC0
FFC00000000000FFC0
FFC00000000000FFC0
FFC00000000000FFC0
FFC00000000000FFC0
FFC00000000000FFC0
FFC00000000000FFC0
FFC00000000000FFC0
FFC00000000000FFC0
FFC00000000000FFC0
FFE00000000000FFC0
7FE00000000001FF80
7FE00000000001FF80
7FE00000000001FF80
7FF00000000003FF80
3FF00000000003FF00
3FF80000000007FF00
3FFC0000000007FE00
1FFC000000000FFE00
1FFE000000001FFE00
0FFF000000003FFC00
0FFF80000000FFF800
07FFE0000001FFF800
03FFF800000FFFF000
03FFFE0000FFFFE000
01FFFFFFFFFFFFC000
00FFFFFFFFFFFFC000
007FFFFFFFFFFF8000
003FFFFFFFFFFF0000
000FFFFFFFFFFC0000
0007FFFFFFFFF80000
0003FFFFFFFFE00000
0000FFFFFFFFC00000
00001FFFFFFE000000
000003FFFFE0000000
ENDCHAR
STARTCHAR 0070
ENCODING 112
SWIDTH 468 0
DWIDTH 45 0
BBX 42 62 4 -2
BITMAP
FFFFFFF80000
FFFFFFFE0000
FFFFFFFF8000
FFFFFFFFC000
FFFFFFFFF000
FFFFFFFFF800
FFFFFFFFFE00
FFFFFFFFFF00
FFFFFFFFFF00
FFC007FFFF80
FFC001FFFF80
FFC000FFFF80
FFC0003FFFC0
FFC0001FFFC0
FFC0001FFFC0
FFC0007FFF80
FFC001FFFF00
FFC003FFFE00
FFC00FFFFC00
FFC03FFFF000
FFC0FFFFE000
FFC3FFFF8000
FFCFFFFF0000
FFDFFFFC0000
FFDFFFF00000
FFDFFFC00000
FFDFFF800000
FFDFFE000000
FFDFF8000000
FFDFE0000000
FFDF80000000
FFDF00000000
FFDC00000000
FFD000000000
FFC000000000
FFC000000000
FFC000000000
FFC000000000
FFC000000000
FFC000000000
FFC000000000
FFC000000000
FFC000000000
FFC000000000
FFC000000000
FFC000000000
FFC000000000
FFC000000000
FFC000000000
FFC000000000
FFC000000000
FFC000000000
FFC000000000
FFC000000000
FFC000000000
FFC000000000
FFC000000000
FFC000000000
FFC000000000
FE0000000000
F00000000000
800000000000
ENDCHAR
STARTCHAR 0071
ENCODING 113
SWIDTH 781 0
DWIDTH 75 0
BBX 67 61 4 -2
BITMAP
000003FFFFE0000000
00003FFFFFFC000000
0000FFFFFFFF800000
0003FFFFFFFFE00000
0007FFFFFFFFF00000
001FFFFFFFFFFC0000
003FFFFFFFFFFE0000
007FFFFFFFFFFF0000
00FFFFFFFFFFFF8000
01FFFFFFFFFFFFC000
03FFFFC0003FFFE000
03FFFC000007FFF000
07FFE0000001FFF000
0FFF80000000FFF800
0FFF000000007FFC00
1FFE000000003FFC00
1FFC000000001FFE00
3FF8000000000FFE00
3FF0000000000FFF00
7FF00000000007FF00
7FE00000000007FF00
7FE00000000003FF80
FFE00000000003FF80
FFC00000000001FF80
FFC00000000001FF80
FFC00000000001FF80
FFC00000000001FF80
FFC00000000001FF80
FFC00000000001FFC0
FFC00000000000FFC0
FFC00000000000FFC0
FFC00000000001FF80
FFC00000000001FF80
FFC00000000001FF80
FFC00000000001FF80
FFC00000000001FF80
FFC00001FFE001FF80
7FE00000FFF003FF80
7FE000007FF803FF00
7FE000003FFC07FF00
7FF000001FFE07FF00
3FF800000FFF0FFE00
3FF8000007FF8FFE00
1FFC000003FFDFFC00
1FFE000003FFFFF800
0FFF000001FFFFF800
07FF800000FFFFF000
07FFC000007FFFE000
03FFF000003FFFC000
01FFFE0007FFFFC000
00FFFFFFFFFFFFC000
007FFFFFFFFFFFC000
003FFFFFFFFFFFE000
001FFFFFFFFFFFF000
0007FFFFFFFFFFF800
0003FFFFFFFFFFFC00
0000FFFFFFFFBFFE00
00003FFFFFFC1FFF00
000007FFFFE007FF80
00000000000003FFC0
00000000000001FFE0
ENDCHAR
STARTCHAR 0072
ENCODING 114
SWIDTH 635 0
DWIDTH 61 0
BBX 58 61 1 -1
BITMAP
FFFFFFFF80000000
FFFFFFFFF0000000
FFFFFFFFFC000000
FFFFFFFFFF000000
FFFFFFFFFFC00000
FFFFFFFFFFE00000
FFFFFFFFFFF00000
FFFFFFFFFFF00000
FFFFFFFFFFF80000
FFC00007FFF80000
FFC00001FFF80000
FFC00000FFF80000
FFC000007FF00000
FFC000003FF00000
FFC000007FE00000
FFC000007FC00000
FFC00000FF800000
FFC00001FF000000
FFC00003FE000000
FFC00007FC000000
FFC0000FF8000000
FFC0001FF0000000
FFC0003FC0000000
FFC0007FE0000000
FFC000FFF8000000
FFC001FFFE000000
FFC003FFFF800000
FFC00FFFFFE00000
FFC01FFFFFF00000
FFC0003FFFF80000
FFC00007FFFC0000
FFC00000FFFE0000
FFC000003FFF0000
FFC000001FFF8000
FFC0000007FFC000
FFC0000003FFE000
FFC0000000FFF000
FFC00000007FF000
FFC00000003FF800
FFC00000001FFC00
FFC00000000FFC00
FFC000000007FE00
FFC000000007FE00
FFC000000003FF00
FFC000000001FF00
FFC000000001FF80
FFC000000000FF80
FFC000000000FF80
FFC0000000007F80
FFC0000000007FC0
FFC0000000007FC0
FFC0000000003FC0
FFC0000000003FC0
FFC0000000003FC0
FFC0000000003FC0
FFC0000000003FC0
FFC0000000003FC0
FFC0000000003FC0
FFC0000000007FC0
FE00000000007C00
C000000000004000
ENDCHAR
STARTCHAR 0073
ENCODING 115
SWIDTH 729 0
DWIDTH 70 0
BBX 66 59 2 1
BITMAP
001FFFFFFFFFFFE000
007FFFFFFFFFFFC000
01FFFFFFFFFFFF8000
03FFFFFFFFFFFF0000
03FFFFFFFFFFFE0000
07FFFFFFFFFFFC0000
0FFFFFFFFFFFF80000
0FFFFFFFFFFFF00000
1FFFFFFFFFFFE00000
1FFE00000000000000
1FF800000000000000
1FF000000000000000
1FF000000000000000
1FF000000000000000
1FF000000000000000
1FF800000000000000
1FFE00000000000000
0FFF80000000000000
0FFFE0000000000000
07FFFC000000000000
03FFFFC00000000000
01FFFFF80000000000
007FFFFF0000000000
003FFFFFF000000000
000FFFFFFE00000000
0003FFFFFFC0000000
00007FFFFFF0000000
00000FFFFFFE000000
000000FFFFFF800000
0000001FFFFFE00000
00000003FFFFF80000
000000003FFFFE0000
0000000007FFFF0000
0000000000FFFFC000
00000000001FFFE000
000000000003FFF000
000000000000FFF800
0000000000007FFC00
0000000000001FFC00
0000000000000FFE00
00000000000007FE00
00000000000003FF00
00000000000003FF00
00000000000001FF80
00000000000000FF80
00000000000000FF80
00000000000000FF80
00000000000000FF80
00000000000000FFC0
00000000000000FFC0
00FFFFFFFFFFFFFFC0
01FFFFFFFFFFFFFFC0
03FFFFFFFFFFFFFFC0
07FFFFFFFFFFFFFFC0
0FFFFFFFFFFFFFFFC0
1FFFFFFFFFFFFFFFC0
3FFFFFFFFFFFFFFFC0
7FFFFFFFFFFFFFFFC0
FFFFFFFFFFFFFFFFC0
ENDCHAR
STARTCHAR 0074
ENCODING 116
SWIDTH 583 0
DWIDTH 56 0
BBX 64 62 -13 -3
BITMAP
007FFFFFFFFFFFFF
01FFFFFFFFFFFFFE
03FFFFFFFFFFFFFC
07FFFFFFFFFFFFF8
0FFFFFFFFFFFFFF0
1FFFFFFFFFFFFFE0
3FFFFFFFFFFFFFC0
7FFFFFFFFFFFFF80
FFFFFFFFFFFFFF00
0000003FE0000000
0000003FE0000000
0000003FE0000000
0000003FE0000000
0000003FE0000000
0000003FE0000000
0000003FE0000000
0000003FE0000000
0000003FE0000000
0000003FE0000000
0000003FE0000000
0000003FE0000000
0000003FE0000000
0000003FE0000000
0000003FE0000000
0000003FE0000000
0000003FE0000000
0000003FE0000000
0000003FE0000000
0000003FE0000000
0000003FE0000000
0000003FE0000000
0000003FE0000000
0000003FE0000000
0000003FE0000000
0000003FE0000000
0000003FE0000000
0000003FE0000000
0000003FE0000000
0000003FE0000000
0000003FE0000000
0000003FE0000000
0000003FE0000000
0000003FE0000000
0000003FE0000000
0000003FE0000000
0000003FE0000000
0000003FE0000000
0000003FE0000000
0000003FE0000000
0000003FE0000000
0000003FE0000000
0000003FE0000000
0000003FE0000000
0000003FE0000000
0000003FE0000000
0000003FE0000000
0000003FE0000000
0000003FE0000000
0000003FE0000000
0000003FE0000000
0000003F00000000
0000003000000000
ENDCHAR
STARTCHAR 0075
ENCODING 117
SWIDTH 614 0
DWIDTH 59 0
BBX 50 59 2 0
BITMAP
FF800000007FC0
FF800000007FC0
FF800000007FC0
FF800000007FC0
FF800000007FC0
FF800000007FC0
FF800000007FC0
FF800000007FC0
FF800000007FC0
FF800000007FC0
FF800000007FC0
FF800000007FC0
FF800000007FC0
FF800000007FC0
FF800000007FC0
FF800000007FC0
FF800000007FC0
FF800000007FC0
FF800000007FC0
FF800000007FC0
FF800000007FC0
FF800000007FC0
FF800000007FC0
FF800000007FC0
FF800000007FC0
FF800000007FC0
FF800000007FC0
FF800000007FC0
FF800000007FC0
FF800000007FC0
FF800000007FC0
FF800000007FC0
FF800000007FC0
FF800000007FC0
FF800000007FC0
FF800000007FC0
FF800000007FC0
FF800000007FC0
FF800000007FC0
FF800000007FC0
FF800000007FC0
FF800000007FC0
FF800000007FC0
FF800000007FC0
FF800000007FC0
FF800000007FC0
FF800000007FC0
FFC0000000FFC0
FFE0000003FFC0
FFFE00001FFFC0
FFFFFFFFFFFFC0
7FFFFFFFFFFF80
3FFFFFFFFFFF00
3FFFFFFFFFFE00
0FFFFFFFFFFC00
07FFFFFFFFF000
00FFFFFFFFC000
001FFFFFFF0000
00007FFFF80000
ENDCHAR
STARTCHAR 0076
ENCODING 118
SWIDTH 614 0
DWIDTH 59 0
BBX 59 61 3 -2
BITMAP
FFC000000000FFE0
7FE000000001FFC0
7FE000000001FFC0
3FF000000003FF80
3FF000000003FF80
1FF800000007FF80
1FF800000007FF00
0FFC00000007FF00
0FFC0000000FFE00
07FE0000000FFE00
07FE0000001FFC00
03FF0000001FFC00
03FF0000003FF800
01FF8000003FF800
01FF8000007FF000
00FFC000007FF000
00FFC00000FFE000
007FC00000FFE000
007FE00001FFC000
007FE00001FFC000
003FF00001FF8000
003FF00003FF8000
001FF80003FF0000
001FF80007FF0000
000FFC0007FE0000
000FFC000FFE0000
0007FE000FFC0000
0007FE001FFC0000
0003FF001FF80000
0003FF003FF80000
0001FF803FF00000
0001FF807FF00000
0000FFC07FE00000
0000FFC07FE00000
00007FE0FFC00000
00007FE0FFC00000
00003FF1FF800000
00003FF1FF800000
00001FF3FF000000
00001FFBFF000000
00001FFFFE000000
00000FFFFE000000
00000FFFFC000000
000007FFFC000000
000007FFF8000000
000003FFF8000000
000003FFF0000000
000001FFF0000000
000001FFE0000000
000000FFE0000000
000000FFC0000000
0000007FC0000000
0000007F80000000
0000003F80000000
0000003F00000000
0000001F00000000
0000001E00000000
0000000E00000000
0000000C00000000
0000000400000000
0000000400000000
ENDCHAR
STARTCHAR 0077
ENCODING 119
SWIDTH 1000 0
DWIDTH 96 0
BBX 97 61 1 -2
BITMAP
FFE0000000004000000001FF80
7FE0000000004000000001FF80
7FE000000000C000000003FF00
3FF000000000E000000003FF00
3FF000000001E000000007FE00
1FF800000001F000000007FE00
1FF800000003F000000007FE00
0FFC00000003F80000000FFC00
0FFC00000007F80000000FFC00
07FE00000007FC0000001FF800
07FE0000000FFC0000001FF800
03FF0000000FFE0000003FF000
03FF0000001FFE0000003FF000
01FF8000001FFF0000007FE000
01FF8000003FFF0000007FE000
00FFC000003FFF800000FFC000
00FFC000007FFF800000FFC000
007FE000007FFFC00001FF8000
007FE00000FFFFC00001FF8000
003FF00000FFFFE00003FF0000
003FF00001FFFFE00003FF0000
001FF80001FFBFF00007FE0000
001FF80003FF3FF00007FE0000
000FFC0003FF1FF80007FE0000
000FFC0007FE1FF8000FFC0000
0007FE0007FE0FFC000FFC0000
0007FE000FFC0FFC001FF80000
0003FF000FFC07FC001FF80000
0003FF001FF807FE003FF00000
0001FF801FF807FE003FF00000
0001FF803FF003FF007FE00000
0000FFC03FF003FF007FE00000
0000FFC07FE001FF80FFC00000
00007FE07FE001FF80FFC00000
00007FE0FFC000FFC1FF800000
00007FE0FFC000FFC1FF800000
00003FF1FF80007FE3FF000000
00003FF1FF80007FE3FF000000
00001FFBFF00003FF3FE000000
00001FFBFF00003FF7FE000000
00000FFFFF00001FFFFE000000
00000FFFFE00001FFFFC000000
000007FFFE00000FFFFC000000
000007FFFC00000FFFF8000000
000003FFFC000007FFF8000000
000003FFF8000007FFF0000000
000001FFF8000003FFF0000000
000001FFF0000003FFE0000000
000000FFF0000001FFE0000000
000000FFE0000001FFC0000000
0000007FE0000000FFC0000000
0000007FC0000000FF80000000
0000003FC00000007F80000000
0000003F800000007F00000000
0000001F800000007F00000000
0000001F000000003E00000000
0000000F000000003E00000000
0000000E000000001E00000000
00000006000000001C00000000
00000004000000000C00000000
00000000000000000800000000
ENDCHAR
STARTCHAR 0078
ENCODING 120
SWIDTH 770 0
DWIDTH 74 0
BBX 73 61 1 -2
BITMAP
3FFC00000000001FFE00
1FFE00000000003FFC00
0FFF00000000007FF800
07FF8000000000FFF000
03FFC000000001FFE000
01FFE000000003FFC000
00FFF000000007FF0000
007FF80000001FFE0000
003FFC0000003FFC0000
001FFE0000007FF80000
000FFF000000FFF00000
0007FF800001FFE00000
0003FFC00003FFC00000
0001FFE00007FF800000
0000FFF0000FFF000000
00007FF8001FFE000000
00003FFC003FFC000000
00001FFE007FF8000000
00000FFF00FFF0000000
000007FF81FFE0000000
000003FFC3FFC0000000
000001FFE7FF80000000
000000FFFFFF00000000
0000007FFFFE00000000
0000003FFFFC00000000
0000001FFFF800000000
0000000FFFF000000000
00000007FFE000000000
00000007FFC000000000
00000007FFE000000000
0000000FFFF000000000
0000001FFFF800000000
0000003FFFFC00000000
0000007FFFFE00000000
000000FFFFFF00000000
000001FFF7FF80000000
000003FFE3FFC0000000
000003FFC1FFE0000000
000007FF81FFF0000000
00000FFF00FFF8000000
00001FFE007FFC000000
00003FFC003FFE000000
00007FFC001FFF000000
0000FFF8000FFF800000
0001FFF00007FFC00000
0003FFE00003FFE00000
0007FFC00001FFF00000
000FFF800000FFF80000
001FFF000000FFFC0000
003FFE0000007FFE0000
007FFC0000003FFF0000
00FFF80000001FFF8000
01FFF00000000FFFC000
03FFE000000007FFE000
03FFC000000003FFF000
07FF8000000001FFF800
0FFF0000000000FFFC00
1FFE00000000007FFE00
3FF800000000003FFF80
7FF000000000003FF000
FE0000000000001C0000
ENDCHAR
STARTCHAR 0079
ENCODING 121
SWIDTH 822 0
DWIDTH 79 0
BBX 70 61 3 -2
BITMAP
FFF800000000003FFC
7FFC00000000007FF8
3FFE0000000000FFF0
1FFF0000000001FFE0
0FFF8000000003FFC0
07FFC000000007FF80
03FFE00000000FFF00
01FFF00000001FFE00
00FFF80000003FFC00
007FFC0000007FF800
003FFE000001FFF000
001FFF000003FFE000
000FFF800007FFC000
0007FFC0000FFF8000
0003FFE0001FFF0000
0001FFF0003FFE0000
0000FFF8007FFC0000
00007FFC00FFF80000
00003FFE01FFF00000
00003FFF03FFE00000
00001FFF87FFC00000
00000FFFCFFF800000
000007FFFFFF000000
000003FFFFFE000000
000001FFFFFC000000
000000FFFFF8000000
0000007FFFF0000000
0000003FFFE0000000
0000001FFFC0000000
0000000FFF80000000
00000007FF00000000
00000003FF00000000
00000001FF00000000
00000001FF00000000
00000001FF00000000
00000001FF00000000
00000001FF00000000
00000001FF00000000
00000001FF00000000
00000001FF00000000
00000001FF00000000
00000001FF00000000
00000001FF00000000
00000001FF00000000
00000001FF00000000
00000001FF00000000
00000001FF00000000
00000001FF00000000
00000001FF00000000
00000001FF00000000
00000001FF00000000
00000001FF00000000
00000001FF00000000
00000001FF00000000
00000001FF00000000
00000001FF00000000
00000001FF00000000
00000001FF00000000
00000001FF00000000
00000001FC00000000
000000018000000000
ENDCHAR
STARTCHAR 007A
ENCODING 122
SWIDTH 666 0
DWIDTH 64 0
BBX 63 59 1 1
BITMAP
000FFFFFFFFFFF80
001FFFFFFFFFFF00
003FFFFFFFFFFE00
007FFFFFFFFFFC00
00FFFFFFFFFFF800
01FFFFFFFFFFF800
03FFFFFFFFFFF000
07FFFFFFFFFFE000
0FFFFFFFFFFFC000
0000000003FFC000
0000000007FF8000
0000000007FF0000
000000000FFE0000
000000001FFC0000
000000003FFC0000
000000007FF80000
000000007FF00000
00000000FFE00000
00000001FFE00000
00000003FFC00000
00000003FF800000
00000007FF000000
0000000FFE000000
0000001FFE000000
0000001FFC000000
0000003FF8000000
0000007FF0000000
000000FFF0000000
000001FFE0000000
000001FFC0000000
000003FF80000000
000007FF80000000
00000FFF00000000
00000FFE00000000
00001FFC00000000
00003FF800000000
00007FF800000000
0000FFF000000000
0000FFE000000000
0001FFC000000000
0003FFC000000000
0007FF8000000000
0007FF0000000000
000FFE0000000000
001FFC0000000000
003FFC0000000000
007FF80000000000
007FF00000000000
00FFE00000000006
01FFE0000000003C
03FFFFFFFFFFFFF8
03FFFFFFFFFFFFF0
07FFFFFFFFFFFFE0
0FFFFFFFFFFFFFC0
1FFFFFFFFFFFFF80
3FFFFFFFFFFFFF80
3FFFFFFFFFFFFF00
7FFFFFFFFFFFFE00
FFFFFFFFFFFFFC00
ENDCHAR
STARTCHAR 007C
ENCODING 124
SWIDTH 302 0
DWIDTH 29 0
BBX 0 0 0 0
BITMAP
ENDCHAR
STARTCHAR 007E
ENCODING 126
SWIDTH 302 0
DWIDTH 29 0
BBX 0 0 0 0
BITMAP
ENDCHAR
STARTCHAR 00A0
ENCODING 160
SWIDTH 302 0
DWIDTH 29 0
BBX 0 0 0 0
BITMAP
ENDCHAR
STARTCHAR 2010
ENCODING 8208
SWIDTH 572 0
DWIDTH 55 0
BBX 45 20 3 15
BITMAP
000000000010
000000000038
000000000070
0000000001F0
000000000FE0
0007FFFFFFC0
001FFFFFFF80
003FFFFFFF00
007FFFFFFE00
00FFFFFFFC00
01FFFFFFF800
03FFFFFFF000
07FFFFFFE000
0FFFFFFFC000
1FFFFFFF8000
3FFFFFFF0000
7F0000000000
FC0000000000
F00000000000
400000000000
ENDCHAR
ENDFONT
